<?xml version="1.0" standalone="yes"?>

<svg version="1.1" viewBox="0.0 0.0 37.79527559055118 37.79527559055118" fill="none" stroke="none" stroke-linecap="square" stroke-miterlimit="10" xmlns="http://www.w3.org/2000/svg" xmlns:xlink="http://www.w3.org/1999/xlink"><clipPath id="p.0"><path d="m0 0l37.795277 0l0 37.795277l-37.795277 0l0 -37.795277z" clip-rule="nonzero"></path></clipPath><g clip-path="url(#p.0)"><path fill="#000000" fill-opacity="0.0" d="m0 0l37.795277 0l0 37.795277l-37.795277 0z" fill-rule="nonzero"></path><path fill="#b6d7a8" d="m6.3669257 18.89764l0 0c0 -6.9205256 5.6101947 -12.530721 12.53072 -12.530721l0 0c3.3233547 0 6.5105934 1.3201971 8.860559 3.6701632c2.349966 2.349966 3.6701622 5.537204 3.6701622 8.860558l0 0c0 6.9205265 -5.610195 12.530722 -12.530722 12.530722l0 0c-6.9205256 0 -12.53072 -5.610195 -12.53072 -12.530722z" fill-rule="nonzero"></path><path stroke="#b6d7a8" stroke-width="1.0" stroke-linejoin="round" stroke-linecap="butt" d="m6.3669257 18.89764l0 0c0 -6.9205256 5.6101947 -12.530721 12.53072 -12.530721l0 0c3.3233547 0 6.5105934 1.3201971 8.860559 3.6701632c2.349966 2.349966 3.6701622 5.537204 3.6701622 8.860558l0 0c0 6.9205265 -5.610195 12.530722 -12.530722 12.530722l0 0c-6.9205256 0 -12.53072 -5.610195 -12.53072 -12.530722z" fill-rule="nonzero"></path><path fill="#fce5cd" d="m11.543206 12.995317l0 0c0 -0.45760345 0.3709612 -0.82856464 0.82856464 -0.82856464l4.3477077 0c0.21974945 0 0.43049812 0.08729458 0.5858841 0.24268055c0.15538597 0.15538597 0.2426815 0.36613464 0.2426815 0.5858841l0 3.3141594c0 0.45760345 -0.37096024 0.8285637 -0.8285656 0.8285637l-4.3477077 0c-0.45760345 0 -0.82856464 -0.37096024 -0.82856464 -0.8285637z" fill-rule="nonzero"></path><path stroke="#e69138" stroke-width="1.0" stroke-linejoin="round" stroke-linecap="butt" d="m11.543206 12.995317l0 0c0 -0.45760345 0.3709612 -0.82856464 0.82856464 -0.82856464l4.3477077 0c0.21974945 0 0.43049812 0.08729458 0.5858841 0.24268055c0.15538597 0.15538597 0.2426815 0.36613464 0.2426815 0.5858841l0 3.3141594c0 0.45760345 -0.37096024 0.8285637 -0.8285656 0.8285637l-4.3477077 0c-0.45760345 0 -0.82856464 -0.37096024 -0.82856464 -0.8285637z" fill-rule="nonzero"></path><path fill="#cfe2f3" d="m21.282917 13.167579l0 0c0 -0.55274105 0.44808388 -1.0008259 1.0008259 -1.0008259l4.0031853 0l0 0c0.26543617 0 0.52000046 0.105443954 0.7076912 0.29313564c0.18769073 0.18769073 0.2931347 0.44225502 0.2931347 0.70769024l0 7.317378c0 0.5527401 -0.44808578 1.0008259 -1.0008259 1.0008259l-4.0031853 0c-0.552742 0 -1.0008259 -0.44808578 -1.0008259 -1.0008259z" fill-rule="nonzero"></path><path stroke="#3d85c6" stroke-width="1.0" stroke-linejoin="round" stroke-linecap="butt" d="m21.282917 13.167579l0 0c0 -0.55274105 0.44808388 -1.0008259 1.0008259 -1.0008259l4.0031853 0l0 0c0.26543617 0 0.52000046 0.105443954 0.7076912 0.29313564c0.18769073 0.18769073 0.2931347 0.44225502 0.2931347 0.70769024l0 7.317378c0 0.5527401 -0.44808578 1.0008259 -1.0008259 1.0008259l-4.0031853 0c-0.552742 0 -1.0008259 -0.44808578 -1.0008259 -1.0008259z" fill-rule="nonzero"></path><path fill="#ead1dc" d="m13.512085 23.766426l0 0c0 0.34319496 2.4111977 0.62141037 5.385561 0.62141037c2.9743652 0 5.385563 -0.2782154 5.385563 -0.62141037l0 3.728466c0 0.34319496 -2.4111977 0.62141037 -5.385563 0.62141037c-2.9743633 0 -5.385561 -0.2782154 -5.385561 -0.62141037z" fill-rule="nonzero"></path><path fill="#f2e3ea" d="m13.512085 23.766426l0 0c0 -0.34319687 2.4111977 -0.6214123 5.385561 -0.6214123c2.9743652 0 5.385563 0.2782154 5.385563 0.6214123l0 0c0 0.34319496 -2.4111977 0.62141037 -5.385563 0.62141037c-2.9743633 0 -5.385561 -0.2782154 -5.385561 -0.62141037z" fill-rule="nonzero"></path><path fill="#000000" fill-opacity="0.0" d="m24.283209 23.766426l0 0c0 0.34319496 -2.4111977 0.62141037 -5.385563 0.62141037c-2.9743633 0 -5.385561 -0.2782154 -5.385561 -0.62141037l0 0c0 -0.34319687 2.4111977 -0.6214123 5.385561 -0.6214123c2.9743652 0 5.385563 0.2782154 5.385563 0.6214123l0 3.728466c0 0.34319496 -2.4111977 0.62141037 -5.385563 0.62141037c-2.9743633 0 -5.385561 -0.2782154 -5.385561 -0.62141037l0 -3.728466" fill-rule="nonzero"></path><path stroke="#a64d79" stroke-width="1.0" stroke-linejoin="round" stroke-linecap="butt" d="m24.283209 23.766426l0 0c0 0.34319496 -2.4111977 0.62141037 -5.385563 0.62141037c-2.9743633 0 -5.385561 -0.2782154 -5.385561 -0.62141037l0 0c0 -0.34319687 2.4111977 -0.6214123 5.385561 -0.6214123c2.9743652 0 5.385563 0.2782154 5.385563 0.6214123l0 3.728466c0 0.34319496 -2.4111977 0.62141037 -5.385563 0.62141037c-2.9743633 0 -5.385561 -0.2782154 -5.385561 -0.62141037l0 -3.728466" fill-rule="nonzero"></path><path fill="#d9ead3" d="m0.87458265 18.897638l0 0c0 -9.725061 8.069197 -17.608782 18.023056 -17.608782l0 0c4.78001 0 9.364246 1.8552055 12.744225 5.1574926c3.3799763 3.302287 5.2788296 7.78115 5.2788296 12.451289l0 0c0 9.725061 -8.069197 17.608782 -18.023054 17.608782l0 0c-9.953859 0 -18.023056 -7.8837204 -18.023056 -17.608782zm2.484951 0l0 0c0 8.352659 6.9566464 15.123831 15.538105 15.123831c8.581457 0 15.538103 -6.7711716 15.538103 -15.123831l0 0c0 -8.352661 -6.956646 -15.123831 -15.538103 -15.123831l0 0c-8.581458 0 -15.538105 6.7711697 -15.538105 15.123831z" fill-rule="nonzero"></path><path stroke="#b6d7a8" stroke-width="1.0" stroke-linejoin="round" stroke-linecap="butt" d="m0.87458265 18.897638l0 0c0 -9.725061 8.069197 -17.608782 18.023056 -17.608782l0 0c4.78001 0 9.364246 1.8552055 12.744225 5.1574926c3.3799763 3.302287 5.2788296 7.78115 5.2788296 12.451289l0 0c0 9.725061 -8.069197 17.608782 -18.023054 17.608782l0 0c-9.953859 0 -18.023056 -7.8837204 -18.023056 -17.608782zm2.484951 0l0 0c0 8.352659 6.9566464 15.123831 15.538105 15.123831c8.581457 0 15.538103 -6.7711716 15.538103 -15.123831l0 0c0 -8.352661 -6.956646 -15.123831 -15.538103 -15.123831l0 0c-8.581458 0 -15.538105 6.7711697 -15.538105 15.123831z" fill-rule="nonzero"></path></g></svg>

