<?xml version="1.0" standalone="yes"?>

<svg version="1.1" viewBox="0.0 0.0 377.9527559055118 377.9527559055118" fill="none" stroke="none" stroke-linecap="square" stroke-miterlimit="10" xmlns="http://www.w3.org/2000/svg" xmlns:xlink="http://www.w3.org/1999/xlink"><clipPath id="p.0"><path d="m0 0l377.95276 0l0 377.95276l-377.95276 0l0 -377.95276z" clip-rule="nonzero"></path></clipPath><g clip-path="url(#p.0)"><path fill="#000000" fill-opacity="0.0" d="m0 0l377.95276 0l0 377.95276l-377.95276 0z" fill-rule="nonzero"></path><path fill="#b6d7a8" d="m62.35242 188.97641l0 0c0 -69.92998 56.691517 -126.61943 126.624054 -126.61943l0 0c33.58278 0 65.7901 13.340221 89.53671 37.08597c23.746613 23.745743 37.08734 55.951897 37.08734 89.533455l0 0c0 69.92996 -56.69153 126.619415 -126.624054 126.619415l0 0c-69.93253 0 -126.624054 -56.689453 -126.624054 -126.619415z" fill-rule="nonzero"></path><path stroke="#b6d7a8" stroke-width="1.0" stroke-linejoin="round" stroke-linecap="butt" d="m62.35242 188.97641l0 0c0 -69.92998 56.691517 -126.61943 126.624054 -126.61943l0 0c33.58278 0 65.7901 13.340221 89.53671 37.08597c23.746613 23.745743 37.08734 55.951897 37.08734 89.533455l0 0c0 69.92996 -56.69153 126.619415 -126.624054 126.619415l0 0c-69.93253 0 -126.624054 -56.689453 -126.624054 -126.619415z" fill-rule="nonzero"></path><path fill="#fce5cd" d="m114.659195 129.33508l0 0c0 -4.623955 3.7484589 -8.372414 8.372414 -8.372414l43.934593 0c2.2205048 0 4.350052 0.88209534 5.9201965 2.4522247c1.5701294 1.5701294 2.4522095 3.6996841 2.4522095 5.920189l0 33.488647c0 4.6239624 -3.7484436 8.372421 -8.372406 8.372421l-43.934593 0l0 0c-4.623955 0 -8.372414 -3.7484589 -8.372414 -8.372421z" fill-rule="nonzero"></path><path stroke="#e69138" stroke-width="1.0" stroke-linejoin="round" stroke-linecap="butt" d="m114.659195 129.33508l0 0c0 -4.623955 3.7484589 -8.372414 8.372414 -8.372414l43.934593 0c2.2205048 0 4.350052 0.88209534 5.9201965 2.4522247c1.5701294 1.5701294 2.4522095 3.6996841 2.4522095 5.920189l0 33.488647c0 4.6239624 -3.7484436 8.372421 -8.372406 8.372421l-43.934593 0l0 0c-4.623955 0 -8.372414 -3.7484589 -8.372414 -8.372421z" fill-rule="nonzero"></path><path fill="#cfe2f3" d="m213.07983 131.07611l0 0c0 -5.5855026 4.527939 -10.113441 10.113434 -10.113441l40.452545 0l0 0c2.682251 0 5.2546387 1.0655212 7.1512756 2.9621582c1.896637 1.896637 2.9621582 4.4690323 2.9621582 7.1512833l0 73.9393c0 5.5855103 -4.527954 10.113449 -10.113434 10.113449l-40.452545 0c-5.585495 0 -10.113434 -4.527939 -10.113434 -10.113449z" fill-rule="nonzero"></path><path stroke="#3d85c6" stroke-width="1.0" stroke-linejoin="round" stroke-linecap="butt" d="m213.07983 131.07611l0 0c0 -5.5855026 4.527939 -10.113441 10.113434 -10.113441l40.452545 0l0 0c2.682251 0 5.2546387 1.0655212 7.1512756 2.9621582c1.896637 1.896637 2.9621582 4.4690323 2.9621582 7.1512833l0 73.9393c0 5.5855103 -4.527954 10.113449 -10.113434 10.113449l-40.452545 0c-5.585495 0 -10.113434 -4.527939 -10.113434 -10.113449z" fill-rule="nonzero"></path><path fill="#ead1dc" d="m134.55489 238.1741l0 0c0 3.4679108 24.365372 6.27919 54.421585 6.27919c30.056213 0 54.421585 -2.8112793 54.421585 -6.27919l0 37.67511c0 3.4678955 -24.365372 6.279175 -54.421585 6.279175c-30.056213 0 -54.421585 -2.8112793 -54.421585 -6.279175z" fill-rule="nonzero"></path><path fill="#f2e3ea" d="m134.55489 238.1741l0 0c0 -3.4678955 24.365372 -6.279175 54.421585 -6.279175c30.056213 0 54.421585 2.8112793 54.421585 6.279175l0 0c0 3.4679108 -24.365372 6.27919 -54.421585 6.27919c-30.056213 0 -54.421585 -2.8112793 -54.421585 -6.27919z" fill-rule="nonzero"></path><path fill="#000000" fill-opacity="0.0" d="m243.39806 238.1741l0 0c0 3.4679108 -24.365372 6.27919 -54.421585 6.27919c-30.056213 0 -54.421585 -2.8112793 -54.421585 -6.27919l0 0c0 -3.4678955 24.365372 -6.279175 54.421585 -6.279175c30.056213 0 54.421585 2.8112793 54.421585 6.279175l0 37.67511c0 3.4678955 -24.365372 6.279175 -54.421585 6.279175c-30.056213 0 -54.421585 -2.8112793 -54.421585 -6.279175l0 -37.67511" fill-rule="nonzero"></path><path stroke="#a64d79" stroke-width="1.0" stroke-linejoin="round" stroke-linecap="butt" d="m243.39806 238.1741l0 0c0 3.4679108 -24.365372 6.27919 -54.421585 6.27919c-30.056213 0 -54.421585 -2.8112793 -54.421585 -6.27919l0 0c0 -3.4678955 24.365372 -6.279175 54.421585 -6.279175c30.056213 0 54.421585 2.8112793 54.421585 6.279175l0 37.67511c0 3.4678955 -24.365372 6.279175 -54.421585 6.279175c-30.056213 0 -54.421585 -2.8112793 -54.421585 -6.279175l0 -37.67511" fill-rule="nonzero"></path><path fill="#000000" fill-opacity="0.0" d="m144.9989 171.19615l-1.1220856 60.6772" fill-rule="nonzero"></path><path stroke="#595959" stroke-width="1.0" stroke-linejoin="round" stroke-linecap="butt" stroke-dasharray="4.0,3.0" d="m144.9989 171.19615l-1.1220856 60.6772" fill-rule="nonzero"></path><path fill="#000000" fill-opacity="0.0" d="m210.64143 146.0794l-35.302826 0" fill-rule="nonzero"></path><path stroke="#595959" stroke-width="1.0" stroke-linejoin="round" stroke-linecap="butt" stroke-dasharray="4.0,3.0,1.0,3.0" d="m210.64143 146.0794l-35.302826 0" fill-rule="nonzero"></path><path fill="#d9ead3" d="m6.851811 188.97638l0 0c0 -98.26902 81.53994 -177.9318 182.12457 -177.9318l0 0c48.302444 0 94.626526 18.74633 128.78152 52.115017c34.15497 33.368687 53.34305 78.62634 53.34305 125.81679l0 0c0 98.26901 -81.53995 177.9318 -182.12457 177.9318l0 0c-100.584625 0 -182.12457 -79.66278 -182.12457 -177.9318zm25.109735 0l0 0c0 84.401306 70.297935 152.82205 157.01483 152.82205c86.71689 0 157.01483 -68.420746 157.01483 -152.82205l0 0c0 -84.4013 -70.29794 -152.82207 -157.01483 -152.82207l0 0c-86.716896 0 -157.01483 68.42076 -157.01483 152.82207z" fill-rule="nonzero"></path><path stroke="#b6d7a8" stroke-width="1.0" stroke-linejoin="round" stroke-linecap="butt" d="m6.851811 188.97638l0 0c0 -98.26902 81.53994 -177.9318 182.12457 -177.9318l0 0c48.302444 0 94.626526 18.74633 128.78152 52.115017c34.15497 33.368687 53.34305 78.62634 53.34305 125.81679l0 0c0 98.26901 -81.53995 177.9318 -182.12457 177.9318l0 0c-100.584625 0 -182.12457 -79.66278 -182.12457 -177.9318zm25.109735 0l0 0c0 84.401306 70.297935 152.82205 157.01483 152.82205c86.71689 0 157.01483 -68.420746 157.01483 -152.82205l0 0c0 -84.4013 -70.29794 -152.82207 -157.01483 -152.82207l0 0c-86.716896 0 -157.01483 68.42076 -157.01483 152.82207z" fill-rule="nonzero"></path><path fill="#000000" fill-opacity="0.0" d="m317.7579 314.79315l-74.4035 -57.82892" fill-rule="nonzero"></path><path stroke="#595959" stroke-width="1.0" stroke-linejoin="round" stroke-linecap="butt" stroke-dasharray="4.0,3.0" d="m317.7579 314.79315l-74.4035 -57.82892" fill-rule="nonzero"></path></g></svg>

