<?xml version="1.0" encoding="UTF-8" standalone="no"?>
<svg
   xmlns:dc="http://purl.org/dc/elements/1.1/"
   xmlns:cc="http://creativecommons.org/ns#"
   xmlns:rdf="http://www.w3.org/1999/02/22-rdf-syntax-ns#"
   xmlns:svg="http://www.w3.org/2000/svg"
   xmlns="http://www.w3.org/2000/svg"
   xmlns:sodipodi="http://sodipodi.sourceforge.net/DTD/sodipodi-0.dtd"
   xmlns:inkscape="http://www.inkscape.org/namespaces/inkscape"
   version="1.1"
   viewBox="0 0 570.0534 231.60503"
   stroke-miterlimit="10"
   id="svg25"
   sodipodi:docname="os-container-jvm-app-stack.svg"
   width="570.05341"
   height="231.60503"
   style="fill:none;stroke:none;stroke-linecap:square;stroke-miterlimit:10"
   inkscape:version="0.92.4 5da689c313, 2019-01-14">
  <metadata
     id="metadata31">
    <rdf:RDF>
      <cc:Work
         rdf:about="">
        <dc:format>image/svg+xml</dc:format>
        <dc:type
           rdf:resource="http://purl.org/dc/dcmitype/StillImage" />
        <dc:title></dc:title>
      </cc:Work>
    </rdf:RDF>
  </metadata>
  <defs
     id="defs29" />
  <sodipodi:namedview
     pagecolor="#ffffff"
     bordercolor="#666666"
     borderopacity="1"
     objecttolerance="10"
     gridtolerance="10"
     guidetolerance="10"
     inkscape:pageopacity="0"
     inkscape:pageshadow="2"
     inkscape:window-width="1890"
     inkscape:window-height="974"
     id="namedview27"
     showgrid="false"
     fit-margin-left="0"
     fit-margin-top="0"
     fit-margin-right="0"
     fit-margin-bottom="0"
     inkscape:zoom="1"
     inkscape:cx="242.03638"
     inkscape:cy="191.33084"
     inkscape:window-x="30"
     inkscape:window-y="30"
     inkscape:window-maximized="1"
     inkscape:current-layer="g23" />
  <clipPath
     id="p.0">
    <path
       d="M 0,0 H 960 V 540 H 0 Z"
       id="path2"
       inkscape:connector-curvature="0"
       style="clip-rule:nonzero" />
  </clipPath>
  <g
     clip-path="url(#p.0)"
     id="g23"
     transform="translate(-10.020627,-79.053714)">
    <path
       d="M 10.020627,254.4563 H 580.07404 v 56.20244 H 10.020627 Z"
       id="path7"
       inkscape:connector-curvature="0"
       style="fill:#274e13;fill-rule:evenodd;stroke-width:1.24350369" />
    <path
       d="m 287.96779,294.66573 q -1.49609,0 -2.7396,-0.48574 -1.22407,-0.48574 -2.02069,-1.30179 -0.79662,-0.83548 -1.34065,-1.92354 -0.54404,-1.08807 -0.77719,-2.25386 -0.23316,-1.16578 -0.23316,-2.40928 0,-1.26294 0.23316,-2.42872 0.23315,-1.18522 0.77719,-2.27328 0.54403,-1.08807 1.34065,-1.90412 0.79662,-0.83547 2.02069,-1.32122 1.24351,-0.48575 2.7396,-0.48575 1.88468,0 3.30306,0.73833 1.4378,0.71891 2.23441,1.96241 0.79663,1.2435 1.18522,2.68131 0.40803,1.4378 0.40803,3.01161 0,1.57381 -0.40803,3.01161 -0.38859,1.4378 -1.18522,2.6813 -0.79661,1.2435 -2.23441,1.98183 -1.41838,0.7189 -3.30306,0.7189 z m 0,-2.66187 q 1.12692,0 1.98183,-0.5246 0.85491,-0.54403 1.32123,-1.39895 0.48574,-0.87433 0.7189,-1.84582 0.23315,-0.97149 0.23315,-1.9624 0,-1.06864 -0.23315,-2.02069 -0.23316,-0.9715 -0.7189,-1.8264 -0.46632,-0.85491 -1.32123,-1.36009 -0.83548,-0.5246 -1.98183,-0.5246 -1.47666,0 -2.48701,0.95206 -0.99092,0.93263 -1.37951,2.1567 -0.36916,1.22407 -0.36916,2.62302 0,1.0492 0.23315,2.02069 0.23316,0.97148 0.69947,1.8264 0.48574,0.85491 1.32122,1.37951 0.85492,0.50517 1.98184,0.50517 z m 15.68751,2.66187 q -2.23442,0 -3.84709,-1.10749 -1.61267,-1.12692 -2.27328,-3.08933 l 2.56472,-0.95206 q 0.52461,1.14636 1.45723,1.8264 0.95206,0.68004 2.19557,0.68004 1.26293,0 2.02069,-0.56346 0.75776,-0.58289 0.75776,-1.69039 0,-0.42746 -0.21373,-0.81605 -0.19429,-0.38859 -0.46631,-0.64118 -0.27202,-0.25259 -0.81605,-0.50517 -0.52461,-0.25259 -0.89377,-0.40803 -0.36917,-0.15544 -1.08807,-0.38859 -0.93262,-0.31088 -1.43779,-0.50518 -0.48575,-0.1943 -1.26294,-0.62175 -0.77719,-0.42745 -1.18521,-0.85491 -0.40803,-0.44688 -0.71891,-1.16578 -0.31087,-0.73833 -0.31087,-1.6321 0,-1.84583 1.4378,-3.08933 1.4378,-1.26294 3.88595,-1.26294 2.04012,0 3.38078,0.9715 1.36008,0.95205 1.82639,2.50643 l -2.50644,0.83548 q -0.73833,-1.67096 -2.8756,-1.67096 -1.08806,0 -1.70982,0.46631 -0.62175,0.44689 -0.62175,1.28237 0,0.54403 0.46632,0.99092 0.48574,0.44688 1.02977,0.66061 0.56347,0.21372 1.61267,0.56346 0.69947,0.25259 1.04921,0.38859 0.36916,0.11659 1.01035,0.42746 0.66061,0.29144 1.02977,0.54403 0.36917,0.25259 0.83548,0.68004 0.48574,0.40803 0.73833,0.85491 0.27202,0.44689 0.44688,1.06864 0.1943,0.60232 0.1943,1.32122 0,2.27328 -1.61266,3.5945 -1.61268,1.30179 -4.09968,1.30179 z"
       id="path9"
       inkscape:connector-curvature="0"
       style="fill:#ffffff;fill-rule:nonzero;stroke-width:1.24350369" />
    <path
       d="M 10.020627,195.98878 H 580.07404 v 56.20244 H 10.020627 Z"
       id="path11"
       inkscape:connector-curvature="0"
       style="fill:#38761d;fill-rule:evenodd;stroke-width:1.24350369" />
    <path
       d="m 114.39799,236.19821 q -1.45723,0 -2.64244,-0.48574 -1.18522,-0.48574 -1.94298,-1.28236 -0.73833,-0.81605 -1.26293,-1.92355 -0.50517,-1.12692 -0.7189,-2.27328 -0.21373,-1.16578 -0.21373,-2.42871 0,-1.47666 0.36917,-2.89504 0.36916,-1.41836 1.12692,-2.6813 0.77719,-1.26294 2.13728,-2.04012 1.37951,-0.7772 3.14761,-0.7772 2.17614,0 3.63337,1.01035 1.45723,1.01035 2.04012,2.44815 l -2.50644,1.12692 q -0.66061,-0.99091 -1.36008,-1.45723 -0.69947,-0.46631 -1.80697,-0.46631 -1.0492,0 -1.86525,0.5246 -0.79662,0.52461 -1.22408,1.39894 -0.42745,0.85492 -0.62175,1.8264 -0.1943,0.97149 -0.1943,1.98184 0,2.27328 1.01035,4.00252 1.01035,1.70982 2.89503,1.70982 1.86526,0 3.10876,-2.09841 l 2.58416,0.99092 q -1.69039,3.78879 -5.69292,3.78879 z m 13.37021,0 q -2.50644,0 -3.96367,-1.63209 -1.45723,-1.65153 -1.45723,-4.54656 0,-2.91447 1.45723,-4.56599 1.45723,-1.65153 3.96367,-1.65153 2.50644,0 3.9831,1.65153 1.47666,1.65152 1.47666,4.56599 0,2.89503 -1.47666,4.54656 -1.45723,1.63209 -3.9831,1.63209 z m 0,-2.58415 q 1.28237,0 2.00127,-0.95205 0.73833,-0.95207 0.73833,-2.64245 0,-1.70982 -0.73833,-2.6813 -0.7189,-0.9715 -2.00127,-0.9715 -1.22407,0 -1.98183,0.99092 -0.73833,0.99092 -0.73833,2.66188 0,1.65153 0.73833,2.62301 0.73833,0.97149 1.98183,0.97149 z m 15.68728,2.31214 v -6.80041 q 0,-2.75903 -2.21499,-2.75903 -2.40929,0 -2.40929,2.72017 v 6.83927 h -2.70073 v -11.85215 h 2.70073 v 1.1075 q 1.16579,-1.37951 3.12819,-1.37951 1.86526,0 3.03104,1.16579 1.18522,1.14635 1.18522,3.67222 v 7.28615 z m 9.56202,0.27201 q -2.75903,0 -2.75903,-3.03104 v -6.72269 h -1.7681 v -2.37043 h 1.7681 v -3.5945 l 2.70074,-1.30179 v 4.89629 h 2.73959 v 2.37043 h -2.73959 v 6.17866 q 0,1.14636 1.01035,1.14636 0.89376,0 1.84582,-0.54403 l -0.33031,2.44815 q -1.01034,0.52459 -2.46757,0.52459 z m 12.21903,-0.27201 v -0.95206 q -1.18521,1.22407 -3.14762,1.22407 -1.90411,0 -3.10876,-1.02977 -1.18521,-1.02977 -1.18521,-2.91446 0,-1.92355 1.34065,-2.91446 1.36009,-0.99092 3.30306,-0.99092 1.69038,0 2.79788,0.62175 v -0.62175 q 0,-1.14636 -0.58289,-1.65153 -0.56346,-0.50517 -1.72925,-0.50517 -1.92354,0 -3.53621,1.10749 l -0.83548,-2.21499 q 1.92354,-1.28236 4.64371,-1.28236 0.93262,0 1.6321,0.15544 0.7189,0.136 1.45723,0.58289 0.75776,0.42746 1.16578,1.37951 0.42746,0.95206 0.42746,2.37043 v 7.63589 z m -2.64244,-2.11784 q 1.55437,0 2.64244,-1.12693 v -1.53495 q -1.02978,-0.48574 -2.37043,-0.48574 -1.08806,0 -1.76811,0.40802 -0.66061,0.3886 -0.66061,1.18522 0,0.7189 0.54404,1.14636 0.56346,0.40802 1.61267,0.40802 z m 11.06972,-11.83272 q -0.46632,0.46631 -1.14636,0.46631 -0.66061,0 -1.14636,-0.46631 -0.46631,-0.48574 -0.46631,-1.14635 0,-0.68005 0.46631,-1.14636 0.48575,-0.46631 1.14636,-0.46631 0.68004,0 1.14636,0.46631 0.46631,0.46631 0.46631,1.14636 0,0.66061 -0.46631,1.14635 z m -2.50644,13.95056 v -11.85215 h 2.70073 v 11.85215 z m 13.54618,0 v -6.80041 q 0,-2.75903 -2.21499,-2.75903 -2.4093,0 -2.4093,2.72017 v 6.83927 h -2.70073 v -11.85215 h 2.70073 v 1.1075 q 1.16579,-1.37951 3.1282,-1.37951 1.86525,0 3.03104,1.16579 1.18521,1.14635 1.18521,3.67222 v 7.28615 z m 10.96091,0.27201 q -2.52586,0 -4.00252,-1.65152 -1.45723,-1.65153 -1.45723,-4.56599 0,-2.87561 1.47666,-4.52713 1.49608,-1.65153 3.98309,-1.65153 2.27328,0 3.73051,1.41837 1.45724,1.39894 1.45724,4.13854 0,0.95205 -0.0972,1.67096 h -7.86905 q 0.0777,1.26293 0.87434,2.02069 0.79662,0.75776 1.90411,0.75776 1.59325,0 2.50644,-1.22407 l 1.72925,1.7681 q -1.55438,1.84582 -4.23569,1.84582 z m -2.75902,-7.42216 h 5.24603 q -0.0971,-1.26293 -0.79662,-1.92354 -0.68004,-0.66061 -1.69039,-0.66061 -1.14635,0 -1.90411,0.64118 -0.75776,0.62175 -0.85491,1.94297 z m 10.73448,7.15015 v -11.85215 h 2.70074 v 1.22408 q 0.7189,-1.49609 2.44814,-1.49609 1.2435,0 2.19556,0.79662 l -0.38859,2.48701 q -0.89377,-0.62176 -2.0207,-0.62176 -0.93262,0 -1.59323,0.66061 -0.64118,0.64119 -0.64118,2.17614 v 6.62554 z m 17.4029,-8.16049 q -0.5246,0.5246 -1.32122,0.5246 -0.77719,0 -1.32122,-0.5246 -0.5246,-0.5246 -0.5246,-1.28237 0,-0.75776 0.5246,-1.28236 0.54403,-0.5246 1.32122,-0.5246 0.79662,0 1.32122,0.54403 0.54404,0.5246 0.54404,1.26293 0,0.75777 -0.54404,1.28237 z m 0,7.92734 q -0.5246,0.50516 -1.32122,0.50516 -0.77719,0 -1.32122,-0.50516 -0.5246,-0.52461 -0.5246,-1.28237 0,-0.77719 0.5246,-1.30179 0.54403,-0.5246 1.32122,-0.5246 0.79662,0 1.32122,0.54403 0.54404,0.5246 0.54404,1.26293 0,0.77719 -0.54404,1.3018 z m 11.47399,0.23315 -3.47793,-16.24327 h 2.85618 l 1.92354,9.55944 q 0.25259,1.34065 0.27202,1.55438 0.0777,-0.50517 0.33031,-1.55438 l 2.38986,-9.55944 h 2.37042 l 2.42872,9.54001 q 0.23316,0.83548 0.33031,1.55438 0.0777,-0.68004 0.27202,-1.53495 l 1.92354,-9.55944 h 2.81731 l -3.51678,16.24327 h -2.5453 l -2.62301,-10.04518 q -0.25259,-0.91319 -0.33031,-1.51552 -0.0583,0.56346 -0.29145,1.49609 l -2.58415,10.06461 z m 21.9418,0.27201 q -2.50644,0 -3.96367,-1.63209 -1.45723,-1.65153 -1.45723,-4.54656 0,-2.91447 1.45723,-4.56599 1.45723,-1.65153 3.96367,-1.65153 2.50644,0 3.9831,1.65153 1.47666,1.65152 1.47666,4.56599 0,2.89503 -1.47666,4.54656 -1.45724,1.63209 -3.9831,1.63209 z m 0,-2.58415 q 1.28236,0 2.00126,-0.95205 0.73833,-0.95207 0.73833,-2.64245 0,-1.70982 -0.73833,-2.6813 -0.7189,-0.9715 -2.00126,-0.9715 -1.22408,0 -1.98183,0.99092 -0.73833,0.99092 -0.73833,2.66188 0,1.65153 0.73833,2.62301 0.73833,0.97149 1.98183,0.97149 z m 8.36227,2.31214 v -11.85215 h 2.70073 v 1.22408 q 0.7189,-1.49609 2.44815,-1.49609 1.2435,0 2.19556,0.79662 l -0.3886,2.48701 q -0.89376,-0.62176 -2.02069,-0.62176 -0.93263,0 -1.59324,0.66061 -0.64118,0.64119 -0.64118,2.17614 v 6.62554 z m 19.84073,0 h -2.95332 l -3.40021,-6.54782 -1.32122,1.30179 v 5.24603 h -2.70074 v -15.46607 l 2.70074,-1.28237 v 8.33536 l 3.34192,-3.43907 h 3.30305 l -3.36135,3.36135 z m 2.6862,0 v -15.46607 l 2.70073,-1.28237 v 16.74844 z m 11.14759,0.27201 q -2.50644,0 -3.96367,-1.63209 -1.45723,-1.65153 -1.45723,-4.54656 0,-2.91447 1.45723,-4.56599 1.45723,-1.65153 3.96367,-1.65153 2.50643,0 3.98309,1.65153 1.47667,1.65152 1.47667,4.56599 0,2.89503 -1.47667,4.54656 -1.45723,1.63209 -3.98309,1.63209 z m 0,-2.58415 q 1.28236,0 2.00126,-0.95205 0.73833,-0.95207 0.73833,-2.64245 0,-1.70982 -0.73833,-2.6813 -0.7189,-0.9715 -2.00126,-0.9715 -1.22408,0 -1.98184,0.99092 -0.73833,0.99092 -0.73833,2.66188 0,1.65153 0.73833,2.62301 0.73833,0.97149 1.98184,0.97149 z m 15.10442,2.31214 v -0.95206 q -1.18521,1.22407 -3.14761,1.22407 -1.90412,0 -3.10876,-1.02977 -1.18522,-1.02977 -1.18522,-2.91446 0,-1.92355 1.34065,-2.91446 1.36008,-0.99092 3.30306,-0.99092 1.69039,0 2.79788,0.62175 v -0.62175 q 0,-1.14636 -0.58289,-1.65153 -0.56346,-0.50517 -1.72924,-0.50517 -1.92355,0 -3.53622,1.10749 l -0.83548,-2.21499 q 1.92354,-1.28236 4.64371,-1.28236 0.93263,0 1.6321,0.15544 0.7189,0.136 1.45723,0.58289 0.75776,0.42746 1.16578,1.37951 0.42746,0.95206 0.42746,2.37043 v 7.63589 z m -2.64244,-2.11784 q 1.55438,0 2.64244,-1.12693 v -1.53495 q -1.02977,-0.48574 -2.37043,-0.48574 -1.08806,0 -1.7681,0.40802 -0.66061,0.3886 -0.66061,1.18522 0,0.7189 0.54403,1.14636 0.56346,0.40802 1.61267,0.40802 z m 12.87668,2.38985 q -2.27328,0 -3.5945,-1.63209 -1.32122,-1.65153 -1.32122,-4.58542 0,-2.85618 1.36008,-4.5077 1.37951,-1.67096 3.55564,-1.67096 1.70982,0 2.66188,1.10749 v -4.5077 l 2.72016,-1.22407 v 16.74844 h -2.72016 v -0.85491 q -0.87434,1.12692 -2.66188,1.12692 z m 0.40803,-2.58415 q 1.51552,0 2.25385,-1.14635 v -4.95459 q -0.75776,-1.14636 -2.25385,-1.14636 -1.24351,0 -1.94297,0.95206 -0.68005,0.93263 -0.68005,2.66188 0,1.65153 0.69947,2.64244 0.69947,0.99092 1.92355,0.99092 z m 20.90473,2.58415 q -1.49608,0 -2.73959,-0.48574 -1.22407,-0.48574 -2.0207,-1.30179 -0.79661,-0.83548 -1.34064,-1.92354 -0.54404,-1.08807 -0.7772,-2.25386 -0.23315,-1.16578 -0.23315,-2.40928 0,-1.26294 0.23315,-2.42872 0.23316,-1.18521 0.7772,-2.27328 0.54403,-1.08807 1.34064,-1.90412 0.79663,-0.83547 2.0207,-1.32122 1.24351,-0.48575 2.73959,-0.48575 1.88469,0 3.30306,0.73833 1.4378,0.71891 2.23442,1.96241 0.79662,1.2435 1.18522,2.68131 0.40802,1.4378 0.40802,3.01161 0,1.57381 -0.40802,3.01161 -0.3886,1.4378 -1.18522,2.6813 -0.79662,1.24351 -2.23442,1.98184 -1.41837,0.71889 -3.30306,0.71889 z m 0,-2.66187 q 1.12693,0 1.98184,-0.5246 0.85491,-0.54403 1.32122,-1.39895 0.48574,-0.87433 0.7189,-1.84582 0.23316,-0.97148 0.23316,-1.9624 0,-1.06864 -0.23316,-2.02069 -0.23316,-0.9715 -0.7189,-1.8264 -0.46631,-0.85491 -1.32122,-1.36009 -0.83548,-0.5246 -1.98184,-0.5246 -1.47666,0 -2.487,0.95206 -0.99092,0.93263 -1.37952,2.1567 -0.36916,1.22408 -0.36916,2.62302 0,1.0492 0.23316,2.02069 0.23315,0.97149 0.69947,1.8264 0.48574,0.8549 1.32122,1.37951 0.85491,0.50517 1.98183,0.50517 z m 10.26665,2.38986 v -11.85215 h 2.70074 v 1.22408 q 0.7189,-1.49609 2.44815,-1.49609 1.2435,0 2.19556,0.79662 l -0.3886,2.48701 q -0.89376,-0.62176 -2.02069,-0.62176 -0.93263,0 -1.59324,0.66061 -0.64118,0.64119 -0.64118,2.17614 v 6.62554 z m 14.16725,0.27201 q -2.42872,0 -3.86652,-1.63209 -1.41838,-1.65153 -1.41838,-4.54656 0,-2.91447 1.41838,-4.56599 1.4378,-1.65153 3.86652,-1.65153 3.67222,0 4.70199,3.2642 l -2.56472,0.8549 q -0.58289,-1.53495 -2.04013,-1.53495 -1.2435,0 -1.94297,0.99092 -0.68004,0.97149 -0.68004,2.64245 0,1.6321 0.68004,2.60358 0.68004,0.95206 1.84583,0.95206 1.65153,0 2.1567,-1.70982 l 2.60359,0.79663 q -1.02978,3.5362 -4.76029,3.5362 z m 7.66313,-0.27201 v -15.50494 l 2.70074,-1.2435 v 6.00379 q 1.16578,-1.37951 3.12819,-1.37951 1.86525,0 3.03104,1.16579 1.18522,1.14635 1.18522,3.67222 v 7.28615 h -2.72017 v -6.83927 q 0,-2.72017 -2.21499,-2.72017 -2.40929,0 -2.40929,2.66188 v 6.89756 z m 18.28597,0.27201 q -2.52586,0 -4.00252,-1.65152 -1.45723,-1.65153 -1.45723,-4.56599 0,-2.87561 1.47666,-4.52713 1.49609,-1.65153 3.98309,-1.65153 2.27329,0 3.73052,1.41837 1.45723,1.39894 1.45723,4.13854 0,0.95205 -0.0971,1.67096 h -7.86905 q 0.0777,1.26293 0.87434,2.02069 0.79662,0.75776 1.90411,0.75776 1.59324,0 2.50644,-1.22407 l 1.72925,1.7681 q -1.55438,1.84582 -4.23569,1.84582 z m -2.75902,-7.42216 h 5.24603 q -0.0971,-1.26293 -0.79662,-1.92354 -0.68004,-0.66061 -1.69039,-0.66061 -1.14635,0 -1.90411,0.64118 -0.75776,0.62175 -0.85491,1.94297 z m 14.52328,7.42216 q -1.4378,0 -2.70073,-0.54403 -1.26294,-0.56346 -1.90412,-1.49609 l 1.84582,-1.5738 q 1.26294,1.26293 2.75903,1.26293 1.92354,0 1.92354,-1.16579 0,-0.38859 -0.3303,-0.7189 -0.33031,-0.3303 -0.7189,-0.50517 -0.38859,-0.17487 -1.24351,-0.5246 -2.04012,-0.66061 -2.99217,-1.53496 -0.93263,-0.87433 -0.93263,-2.31213 0,-1.55438 1.18521,-2.40929 1.20465,-0.87434 3.05047,-0.87434 2.68131,0 4.23569,1.82639 l -1.86526,1.53496 q -1.04921,-1.01035 -2.37043,-1.01035 -1.61267,0 -1.61267,0.97148 0,0.50518 0.5829,0.85492 0.60232,0.3303 1.74867,0.69946 1.92355,0.66062 2.89503,1.55438 0.99092,0.87435 0.99092,2.44815 0,1.69039 -1.22407,2.60359 -1.22408,0.91319 -3.32249,0.91319 z m 10.94069,0 q -2.75902,0 -2.75902,-3.03104 v -6.72269 h -1.76811 v -2.37043 h 1.76811 v -3.5945 l 2.70074,-1.30179 v 4.89629 h 2.73959 v 2.37043 h -2.73959 v 6.17866 q 0,1.14636 1.01034,1.14636 0.89377,0 1.84583,-0.54403 l -0.33031,2.44815 q -1.01035,0.52459 -2.46758,0.52459 z m 5.47692,-0.27201 v -11.85215 h 2.70073 v 1.22408 q 0.7189,-1.49609 2.44815,-1.49609 1.2435,0 2.19556,0.79662 l -0.38859,2.48701 q -0.89377,-0.62176 -2.0207,-0.62176 -0.93263,0 -1.59324,0.66061 -0.64118,0.64119 -0.64118,2.17614 v 6.62554 z m 16.20736,0 v -0.95206 q -1.18521,1.22407 -3.14762,1.22407 -1.90411,0 -3.10876,-1.02977 -1.18521,-1.02977 -1.18521,-2.91446 0,-1.92355 1.34065,-2.91446 1.36009,-0.99092 3.30306,-0.99092 1.69039,0 2.79788,0.62175 v -0.62175 q 0,-1.14636 -0.58289,-1.65153 -0.56346,-0.50517 -1.72925,-0.50517 -1.92354,0 -3.53621,1.10749 l -0.83548,-2.21499 q 1.92355,-1.28236 4.64371,-1.28236 0.93263,0 1.6321,0.15544 0.7189,0.136 1.45723,0.58289 0.75776,0.42746 1.16579,1.37951 0.42745,0.95206 0.42745,2.37043 v 7.63589 z m -2.64244,-2.11784 q 1.55438,0 2.64244,-1.12693 v -1.53495 q -1.02978,-0.48574 -2.37042,-0.48574 -1.08807,0 -1.76811,0.40802 -0.66062,0.3886 -0.66062,1.18522 0,0.7189 0.54404,1.14636 0.56346,0.40802 1.61267,0.40802 z m 12.02178,2.38985 q -2.75903,0 -2.75903,-3.03104 v -6.72269 h -1.76811 v -2.37043 h 1.76811 v -3.5945 l 2.70074,-1.30179 v 4.89629 h 2.73959 v 2.37043 h -2.73959 v 6.17866 q 0,1.14636 1.01034,1.14636 0.89377,0 1.84583,-0.54403 l -0.33031,2.44815 q -1.01034,0.52459 -2.46757,0.52459 z m 8.00277,-14.22257 q -0.46631,0.46631 -1.14635,0.46631 -0.66061,0 -1.14636,-0.46631 -0.46631,-0.48574 -0.46631,-1.14635 0,-0.68005 0.46631,-1.14636 0.48575,-0.46631 1.14636,-0.46631 0.68004,0 1.14635,0.46631 0.46632,0.46631 0.46632,1.14636 0,0.66061 -0.46632,1.14635 z m -2.50644,13.95056 v -11.85215 h 2.70074 v 11.85215 z m 11.05917,0.27201 q -2.50643,0 -3.96367,-1.63209 -1.45723,-1.65153 -1.45723,-4.54656 0,-2.91447 1.45723,-4.56599 1.45724,-1.65153 3.96367,-1.65153 2.50644,0 3.9831,1.65153 1.47666,1.65152 1.47666,4.56599 0,2.89503 -1.47666,4.54656 -1.45723,1.63209 -3.9831,1.63209 z m 0,-2.58415 q 1.28237,0 2.00127,-0.95205 0.73833,-0.95207 0.73833,-2.64245 0,-1.70982 -0.73833,-2.6813 -0.7189,-0.9715 -2.00127,-0.9715 -1.22407,0 -1.98183,0.99092 -0.73833,0.99092 -0.73833,2.66188 0,1.65153 0.73833,2.62301 0.73833,0.97149 1.98183,0.97149 z m 15.68733,2.31214 v -6.80041 q 0,-2.75903 -2.215,-2.75903 -2.40929,0 -2.40929,2.72017 v 6.83927 h -2.70073 v -11.85215 h 2.70073 v 1.1075 q 1.16579,-1.37951 3.12819,-1.37951 1.86526,0 3.03104,1.16579 1.18522,1.14635 1.18522,3.67222 v 7.28615 z"
       id="path13"
       inkscape:connector-curvature="0"
       style="fill:#ffffff;fill-rule:nonzero;stroke-width:1.24350369" />
    <path
       d="M 10.020627,137.52126 H 580.07404 V 193.7237 H 10.020627 Z"
       id="path15"
       inkscape:connector-curvature="0"
       style="fill:#6aa84f;fill-rule:evenodd;stroke-width:1.24350369" />
    <path
       d="m 35.292353,177.7307 q -1.748676,0 -3.167048,-0.85493 -1.398942,-0.87434 -2.137272,-2.44815 l 2.409289,-1.16578 q 0.913197,1.80697 2.895031,1.80697 2.720165,0 2.720165,-3.4585 V 161.2154 h 2.759024 v 10.70578 q 0,1.32123 -0.349735,2.37043 -0.330306,1.02978 -0.854909,1.67096 -0.524604,0.64118 -1.282363,1.04921 -0.738331,0.40802 -1.476661,0.56348 -0.718901,0.15544 -1.515521,0.15544 z m 15.827692,-0.27202 v -0.95208 q -1.185215,1.2241 -3.147619,1.2241 -1.904115,0 -3.10876,-1.0298 -1.185214,-1.02978 -1.185214,-2.91446 0,-1.92354 1.340652,-2.91446 1.360082,-0.99092 3.303057,-0.99092 1.690388,0 2.797884,0.62176 v -0.62176 q 0,-1.14635 -0.582892,-1.65153 -0.563463,-0.50517 -1.729248,-0.50517 -1.923545,0 -3.536214,1.1075 l -0.835479,-2.215 q 1.923545,-1.28236 4.64371,-1.28236 0.932627,0 1.632098,0.15544 0.718901,0.13601 1.457231,0.58289 0.75776,0.42745 1.165785,1.37951 0.427454,0.95206 0.427454,2.37043 v 7.63591 z m -2.642446,-2.11786 q 1.55438,0 2.642446,-1.12693 v -1.53494 q -1.029777,-0.48575 -2.370429,-0.48575 -1.088066,0 -1.768107,0.40803 -0.660612,0.38859 -0.660612,1.18521 0,0.7189 0.544033,1.14635 0.563463,0.40803 1.612669,0.40803 z m 11.710901,2.11786 -4.332834,-11.85216 h 2.759025 l 2.623015,7.40273 q 0.272016,0.93263 0.330306,1.06864 0.136008,-0.60233 0.310876,-1.06864 l 2.584156,-7.40273 h 2.759026 l -4.332835,11.85216 z m 16.102591,0 v -0.95208 q -1.185212,1.2241 -3.147622,1.2241 -1.90411,0 -3.108759,-1.0298 -1.185211,-1.02978 -1.185211,-2.91446 0,-1.92354 1.340655,-2.91446 1.360079,-0.99092 3.303052,-0.99092 1.690392,0 2.797885,0.62176 v -0.62176 q 0,-1.14635 -0.582893,-1.65153 -0.563462,-0.50517 -1.729248,-0.50517 -1.923542,0 -3.536215,1.1075 l -0.835474,-2.215 q 1.923541,-1.28236 4.643707,-1.28236 0.93263,0 1.632098,0.15544 0.718899,0.13601 1.45723,0.58289 0.757762,0.42745 1.165786,1.37951 0.427456,0.95206 0.427456,2.37043 v 7.63591 z m -2.642447,-2.11786 q 1.554379,0 2.642447,-1.12693 v -1.53494 q -1.029774,-0.48575 -2.370429,-0.48575 -1.088067,0 -1.768104,0.40803 -0.660612,0.38859 -0.660612,1.18521 0,0.7189 0.544031,1.14635 0.563462,0.40803 1.612667,0.40803 z m 18.94905,2.11786 -5.654057,-16.24328 h 2.992185 l 3.633358,10.9778 q 0.310881,1.04921 0.427456,1.47666 0.09715,-0.48574 0.388593,-1.47666 l 3.613934,-10.9778 h 2.953317 l -5.634621,16.24328 z m 13.440646,-13.95057 q -0.46632,0.46631 -1.14636,0.46631 -0.66061,0 -1.14635,-0.46631 -0.46632,-0.48575 -0.46632,-1.14636 0,-0.68004 0.46632,-1.14635 0.48574,-0.46632 1.14635,-0.46632 0.68004,0 1.14636,0.46632 0.46631,0.46631 0.46631,1.14635 0,0.66061 -0.46631,1.14636 z m -2.50644,13.95057 v -11.85216 h 2.70074 v 11.85216 z m 6.22116,0 v -11.85216 h 2.70073 v 1.22407 q 0.71891,-1.49609 2.44815,-1.49609 1.24351,0 2.19557,0.79662 l -0.3886,2.48701 q -0.89377,-0.62175 -2.02069,-0.62175 -0.93263,0 -1.59325,0.66061 -0.64118,0.64118 -0.64118,2.17613 v 6.62556 z m 12.94317,0.27202 q -2.75902,0 -2.75902,-3.03106 v -6.7227 h -1.76811 v -2.37042 h 1.76811 v -3.59451 l 2.70073,-1.30179 v 4.8963 h 2.7396 v 2.37042 h -2.7396 v 6.17867 q 0,1.14635 1.01035,1.14635 0.89377,0 1.84582,-0.54403 l -0.3303,2.44815 q -1.01035,0.52462 -2.46758,0.52462 z m 12.68535,-0.27202 v -1.14637 q -1.1075,1.41839 -3.10876,1.41839 -1.86525,0 -3.05047,-1.16581 -1.16579,-1.16578 -1.16579,-3.69164 v -7.26673 h 2.70074 v 6.78098 q 0,2.75902 2.23442,2.75902 2.38986,0 2.38986,-2.72016 v -6.81984 h 2.72016 v 11.85216 z m 12.94279,0 v -0.95208 q -1.18521,1.2241 -3.14762,1.2241 -1.90412,0 -3.10876,-1.0298 -1.18522,-1.02978 -1.18522,-2.91446 0,-1.92354 1.34066,-2.91446 1.36008,-0.99092 3.30306,-0.99092 1.69038,0 2.79788,0.62176 v -0.62176 q 0,-1.14635 -0.58289,-1.65153 -0.56347,-0.50517 -1.72925,-0.50517 -1.92355,0 -3.53621,1.1075 l -0.83548,-2.215 q 1.92354,-1.28236 4.6437,-1.28236 0.93263,0 1.6321,0.15544 0.71891,0.13601 1.45724,0.58289 0.75775,0.42745 1.16578,1.37951 0.42745,0.95206 0.42745,2.37043 v 7.63591 z m -2.64244,-2.11786 q 1.55438,0 2.64244,-1.12693 v -1.53494 q -1.02978,-0.48575 -2.37043,-0.48575 -1.08806,0 -1.76811,0.40803 -0.66061,0.38859 -0.66061,1.18521 0,0.7189 0.54403,1.14635 0.56347,0.40803 1.61268,0.40803 z m 8.66042,2.11786 v -15.4661 l 2.70074,-1.28236 v 16.74846 z m 26.99312,0 h -2.77845 v -8.62682 q 0,-1.06864 0.0971,-1.94298 -0.29145,0.83548 -0.75777,1.98183 l -3.94424,8.85999 -3.94423,-8.89884 q -0.40803,-0.93263 -0.75776,-1.94298 0.0971,0.87434 0.0971,1.94298 v 8.62682 h -2.79788 V 161.2154 h 2.8173 l 4.1774,9.54 q 0.25259,0.64118 0.44689,1.20465 0.17487,-0.56347 0.42745,-1.20465 l 4.19682,-9.54 h 2.72017 z m 10.46406,0 v -0.95208 q -1.18522,1.2241 -3.14762,1.2241 -1.90412,0 -3.10876,-1.0298 -1.18522,-1.02978 -1.18522,-2.91446 0,-1.92354 1.34066,-2.91446 1.36008,-0.99092 3.30305,-0.99092 1.69039,0 2.79789,0.62176 v -0.62176 q 0,-1.14635 -0.5829,-1.65153 -0.56346,-0.50517 -1.72925,-0.50517 -1.92354,0 -3.5362,1.1075 l -0.83548,-2.215 q 1.92354,-1.28236 4.6437,-1.28236 0.93263,0 1.6321,0.15544 0.7189,0.13601 1.45723,0.58289 0.75776,0.42745 1.16579,1.37951 0.42745,0.95206 0.42745,2.37043 v 7.63591 z m -2.64245,-2.11786 q 1.55438,0 2.64245,-1.12693 v -1.53494 q -1.02978,-0.48575 -2.37043,-0.48575 -1.08807,0 -1.76811,0.40803 -0.66061,0.38859 -0.66061,1.18521 0,0.7189 0.54403,1.14635 0.56346,0.40803 1.61267,0.40803 z m 13.24585,2.38988 q -2.42872,0 -3.86652,-1.63212 -1.41837,-1.65153 -1.41837,-4.54656 0,-2.91446 1.41837,-4.56599 1.4378,-1.65153 3.86652,-1.65153 3.67222,0 4.702,3.2642 l -2.56473,0.85491 q -0.58289,-1.53495 -2.04012,-1.53495 -1.2435,0 -1.94297,0.99091 -0.68005,0.97149 -0.68005,2.64245 0,1.6321 0.68005,2.60359 0.68003,0.95205 1.84582,0.95205 1.65153,0 2.1567,-1.70982 l 2.60359,0.79662 q -1.02977,3.53624 -4.76029,3.53624 z m 7.66314,-0.27202 v -15.50495 l 2.70074,-1.24351 v 6.00379 q 1.16578,-1.37951 3.12819,-1.37951 1.86525,0 3.03104,1.16578 1.18521,1.14636 1.18521,3.67223 v 7.28617 h -2.72017 v -6.83929 q 0,-2.72016 -2.21499,-2.72016 -2.40928,0 -2.40928,2.66187 v 6.89758 z m 15.93497,-13.95057 q -0.46631,0.46631 -1.14635,0.46631 -0.66061,0 -1.14636,-0.46631 -0.46631,-0.48575 -0.46631,-1.14636 0,-0.68004 0.46631,-1.14635 0.48575,-0.46632 1.14636,-0.46632 0.68004,0 1.14635,0.46632 0.46632,0.46631 0.46632,1.14635 0,0.66061 -0.46632,1.14636 z m -2.50644,13.95057 v -11.85216 h 2.70074 v 11.85216 z m 13.54614,0 v -6.80043 q 0,-2.75902 -2.21499,-2.75902 -2.40929,0 -2.40929,2.72016 v 6.83929 h -2.70073 v -11.85216 h 2.70073 v 1.10749 q 1.16579,-1.37951 3.12819,-1.37951 1.86526,0 3.03104,1.16578 1.18522,1.14636 1.18522,3.67223 v 7.28617 z m 10.96096,0.27202 q -2.52587,0 -4.00253,-1.65155 -1.45723,-1.65153 -1.45723,-4.56599 0,-2.8756 1.47666,-4.52713 1.49609,-1.65153 3.9831,-1.65153 2.27328,0 3.73051,1.41837 1.45723,1.39894 1.45723,4.13854 0,0.95206 -0.0971,1.67095 h -7.86904 q 0.0777,1.26294 0.87433,2.0207 0.79663,0.75776 1.90412,0.75776 1.59324,0 2.50643,-1.22408 l 1.72925,1.76811 q -1.55438,1.84585 -4.23568,1.84585 z m -2.75902,-7.42218 h 5.24603 q -0.0971,-1.26294 -0.79663,-1.92355 -0.68003,-0.66061 -1.69038,-0.66061 -1.14636,0 -1.90412,0.64118 -0.75776,0.62175 -0.8549,1.94298 z m 18.6721,-1.01035 q -0.52461,0.5246 -1.32123,0.5246 -0.77719,0 -1.32122,-0.5246 -0.5246,-0.5246 -0.5246,-1.28236 0,-0.75776 0.5246,-1.28236 0.54403,-0.52461 1.32122,-0.52461 0.79662,0 1.32123,0.54403 0.54403,0.52461 0.54403,1.26294 0,0.75776 -0.54403,1.28236 z m 0,7.92733 q -0.52461,0.5052 -1.32123,0.5052 -0.77719,0 -1.32122,-0.5052 -0.5246,-0.5246 -0.5246,-1.28236 0,-0.77718 0.5246,-1.30179 0.54403,-0.52461 1.32122,-0.52461 0.79662,0 1.32123,0.54404 0.54403,0.5246 0.54403,1.26293 0,0.77719 -0.54403,1.30179 z m 9.02587,0.23318 V 161.2154 h 7.20844 q 2.79788,0 4.06081,1.39894 1.26294,1.37951 1.26294,3.55564 0,1.49609 -0.85491,2.81731 -0.85491,1.32123 -2.48701,1.80697 l 3.24477,6.66442 h -3.12819 l -3.12819,-6.35355 h -3.38078 v 6.35355 z m 2.79788,-8.99599 h 4.44942 q 1.2435,0 1.82639,-0.64118 0.5829,-0.66061 0.5829,-1.65153 0,-0.99092 -0.56346,-1.65153 -0.54404,-0.66061 -1.84583,-0.66061 h -4.44942 z m 15.40567,-4.95458 q -0.46631,0.46631 -1.14636,0.46631 -0.66061,0 -1.14635,-0.46631 -0.46631,-0.48575 -0.46631,-1.14636 0,-0.68004 0.46631,-1.14635 0.48574,-0.46632 1.14635,-0.46632 0.68005,0 1.14636,0.46632 0.46631,0.46631 0.46631,1.14635 0,0.66061 -0.46631,1.14636 z m -2.50644,13.95057 v -11.85216 h 2.70073 v 11.85216 z m 10.92313,0.27202 q -2.42873,0 -3.86652,-1.63212 -1.41838,-1.65153 -1.41838,-4.54656 0,-2.91446 1.41838,-4.56599 1.43779,-1.65153 3.86652,-1.65153 3.67222,0 4.70199,3.2642 l -2.56473,0.85491 q -0.58288,-1.53495 -2.04012,-1.53495 -1.2435,0 -1.94297,0.99091 -0.68005,0.97149 -0.68005,2.64245 0,1.6321 0.68005,2.60359 0.68004,0.95205 1.84583,0.95205 1.65152,0 2.15669,-1.70982 l 2.60359,0.79662 q -1.02978,3.53624 -4.76028,3.53624 z m 7.66313,-0.27202 v -15.50495 l 2.70073,-1.24351 v 6.00379 q 1.16579,-1.37951 3.1282,-1.37951 1.86525,0 3.03104,1.16578 1.18521,1.14636 1.18521,3.67223 v 7.28617 h -2.72016 v -6.83929 q 0,-2.72016 -2.21499,-2.72016 -2.4093,0 -2.4093,2.66187 v 6.89758 z m 23.96978,0.27202 q -2.52587,0 -4.00256,-1.65155 -1.45724,-1.65153 -1.45724,-4.56599 0,-2.8756 1.47666,-4.52713 1.49613,-1.65153 3.98314,-1.65153 2.27328,0 3.73051,1.41837 1.45723,1.39894 1.45723,4.13854 0,0.95206 -0.0971,1.67095 h -7.86904 q 0.0777,1.26294 0.87433,2.0207 0.79663,0.75776 1.90412,0.75776 1.59324,0 2.50643,-1.22408 l 1.72925,1.76811 q -1.55438,1.84585 -4.23568,1.84585 z m -2.75902,-7.42218 h 5.24603 q -0.0971,-1.26294 -0.79662,-1.92355 -0.68004,-0.66061 -1.69039,-0.66061 -1.14636,0 -1.90412,0.64118 -0.75775,0.62175 -0.8549,1.94298 z m 15.43647,7.42218 q -2.42871,0 -3.86652,-1.63212 -1.41837,-1.65153 -1.41837,-4.54656 0,-2.91446 1.41837,-4.56599 1.43781,-1.65153 3.86652,-1.65153 3.67222,0 4.702,3.2642 l -2.56472,0.85491 q -0.5829,-1.53495 -2.04013,-1.53495 -1.2435,0 -1.94297,0.99091 -0.68004,0.97149 -0.68004,2.64245 0,1.6321 0.68004,2.60359 0.68004,0.95205 1.84582,0.95205 1.65153,0 2.15671,-1.70982 l 2.60358,0.79662 q -1.02977,3.53624 -4.76029,3.53624 z m 12.50115,0 q -2.50644,0 -3.96367,-1.63212 -1.45723,-1.65153 -1.45723,-4.54656 0,-2.91446 1.45723,-4.56599 1.45723,-1.65153 3.96367,-1.65153 2.50644,0 3.9831,1.65153 1.47666,1.65153 1.47666,4.56599 0,2.89503 -1.47666,4.54656 -1.45723,1.63212 -3.9831,1.63212 z m 0,-2.58418 q 1.28236,0 2.00126,-0.95206 0.73833,-0.95205 0.73833,-2.64244 0,-1.70982 -0.73833,-2.68131 -0.7189,-0.97148 -2.00126,-0.97148 -1.22407,0 -1.98184,0.99091 -0.73833,0.99092 -0.73833,2.66188 0,1.65152 0.73833,2.62302 0.73834,0.97148 1.98184,0.97148 z m 12.15103,2.58418 q -1.43781,0 -2.70074,-0.54405 -1.26293,-0.56347 -1.90411,-1.4961 l 1.84582,-1.57381 q 1.26294,1.26294 2.75903,1.26294 1.92354,0 1.92354,-1.16579 0,-0.38859 -0.33031,-0.7189 -0.3303,-0.3303 -0.71889,-0.50517 -0.3886,-0.17487 -1.24351,-0.52461 -2.04012,-0.6606 -2.99218,-1.53494 -0.93263,-0.87434 -0.93263,-2.31214 0,-1.55438 1.18522,-2.40929 1.20464,-0.87434 3.05047,-0.87434 2.6813,0 4.23568,1.8264 l -1.86525,1.53494 q -1.04921,-1.01034 -2.37043,-1.01034 -1.61267,0 -1.61267,0.97149 0,0.50517 0.58289,0.85491 0.60233,0.3303 1.74868,0.69947 1.92354,0.66061 2.89503,1.55438 0.99092,0.87433 0.99092,2.44814 0,1.69039 -1.22408,2.60359 -1.22407,0.91322 -3.32248,0.91322 z m 8.92,4.23568 1.82639,-4.70201 -4.44941,-11.65785 H 377.56 l 2.75903,7.28615 q 0.21373,0.50517 0.34973,1.06864 0.11658,-0.5246 0.31088,-1.06864 l 2.79788,-7.28615 h 2.7396 l -6.27581,16.35986 z m 15.18389,-4.23568 q -1.4378,0 -2.70074,-0.54405 -1.26293,-0.56347 -1.90412,-1.4961 l 1.84583,-1.57381 q 1.26294,1.26294 2.75903,1.26294 1.92354,0 1.92354,-1.16579 0,-0.38859 -0.3303,-0.7189 -0.33031,-0.3303 -0.7189,-0.50517 -0.3886,-0.17487 -1.24351,-0.52461 -2.04012,-0.6606 -2.99218,-1.53494 -0.93262,-0.87434 -0.93262,-2.31214 0,-1.55438 1.18521,-2.40929 1.20464,-0.87434 3.05047,-0.87434 2.6813,0 4.23568,1.8264 l -1.86525,1.53494 q -1.04921,-1.01034 -2.37043,-1.01034 -1.61267,0 -1.61267,0.97149 0,0.50517 0.58289,0.85491 0.60232,0.3303 1.74868,0.69947 1.92355,0.66061 2.89503,1.55438 0.99092,0.87433 0.99092,2.44814 0,1.69039 -1.22407,2.60359 -1.22408,0.91322 -3.32249,0.91322 z m 10.94069,0 q -2.75903,0 -2.75903,-3.03106 v -6.7227 h -1.7681 v -2.37042 h 1.7681 v -3.59451 l 2.70074,-1.30179 v 4.8963 h 2.7396 v 2.37042 h -2.7396 v 6.17867 q 0,1.14635 1.01035,1.14635 0.89377,0 1.84582,-0.54404 l -0.3303,2.44816 q -1.01035,0.52462 -2.46758,0.52462 z m 10.35378,0 q -2.52587,0 -4.00253,-1.65155 -1.45723,-1.65153 -1.45723,-4.56599 0,-2.8756 1.47666,-4.52713 1.49609,-1.65153 3.9831,-1.65153 2.27328,0 3.73051,1.41837 1.45723,1.39894 1.45723,4.13854 0,0.95206 -0.0971,1.67095 h -7.86904 q 0.0777,1.26294 0.87433,2.0207 0.79662,0.75776 1.90412,0.75776 1.59324,0 2.50643,-1.22408 l 1.72925,1.76811 q -1.55438,1.84585 -4.23568,1.84585 z m -2.75903,-7.42218 h 5.24603 q -0.0971,-1.26294 -0.79661,-1.92355 -0.68005,-0.66061 -1.69039,-0.66061 -1.14636,0 -1.90412,0.64118 -0.75776,0.62175 -0.85491,1.94298 z m 24.64618,7.15016 v -6.80043 q 0,-2.75902 -2.02069,-2.75902 -1.04921,0 -1.65153,0.7189 -0.58289,0.69947 -0.58289,2.09841 v 6.74214 h -2.70074 v -6.80043 q 0,-2.75902 -2.02069,-2.75902 -1.04921,0 -1.65153,0.7189 -0.58289,0.69947 -0.58289,2.09841 v 6.74214 h -2.70074 v -11.85216 h 2.70074 v 1.08806 q 1.02978,-1.36008 2.89503,-1.36008 2.19556,0 3.10876,1.67096 1.14635,-1.67096 3.57507,-1.67096 2.00127,0 3.16705,1.1075 1.18522,1.08806 1.18522,3.45849 v 7.55819 z m 16.60773,0.27202 q -2.50644,0 -3.96367,-1.63212 -1.45723,-1.65153 -1.45723,-4.54656 0,-2.91446 1.45723,-4.56599 1.45723,-1.65153 3.96367,-1.65153 2.50644,0 3.9831,1.65153 1.47666,1.65153 1.47666,4.56599 0,2.89503 -1.47666,4.54656 -1.45723,1.63212 -3.9831,1.63212 z m 0,-2.58418 q 1.28236,0 2.00126,-0.95206 0.73833,-0.95205 0.73833,-2.64244 0,-1.70982 -0.73833,-2.68131 -0.7189,-0.97148 -2.00126,-0.97148 -1.22407,0 -1.98183,0.99091 -0.73833,0.99092 -0.73833,2.66188 0,1.65152 0.73833,2.62302 0.73833,0.97148 1.98183,0.97148 z m 11.85966,-7.16958 v 9.48174 h -2.72017 v -9.48174 h -1.70981 v -2.37042 h 1.70981 v -1.86526 q 0,-2.79788 2.81732,-2.79788 1.39894,0 2.50643,0.56346 v 2.21499 q -0.95205,-0.38859 -1.70981,-0.38859 -0.89377,0 -0.89377,0.93263 v 1.34065 h 2.60358 v 2.37042 z m 10.37632,9.48174 v -15.4661 l 2.70073,-1.28236 v 16.74846 z m 8.83544,-13.95057 q -0.46631,0.46631 -1.14635,0.46631 -0.66061,0 -1.14636,-0.46631 -0.46631,-0.48575 -0.46631,-1.14636 0,-0.68004 0.46631,-1.14635 0.48575,-0.46632 1.14636,-0.46632 0.68004,0 1.14635,0.46632 0.46632,0.46631 0.46632,1.14635 0,0.66061 -0.46632,1.14636 z m -2.50643,13.95057 v -11.85216 h 2.70073 v 11.85216 z m 11.54491,0.27202 q -1.67096,0 -2.62301,-1.18523 v 0.91321 h -2.70074 v -15.52439 l 2.70074,-1.22407 v 5.77064 q 1.01034,-1.14636 2.6813,-1.14636 2.19556,0 3.55565,1.67096 1.36008,1.65153 1.36008,4.5077 0,2.97275 -1.32123,4.60485 -1.32122,1.61269 -3.65279,1.61269 z m -0.3303,-2.58418 q 1.26293,0 1.92354,-0.97148 0.66061,-0.9715 0.66061,-2.66188 0,-1.74868 -0.68004,-2.6813 -0.66061,-0.93263 -1.90411,-0.93263 -1.51553,0 -2.29271,1.16578 v 4.93516 q 0.73833,1.14635 2.29271,1.14635 z m 8.20686,2.31216 v -11.85216 h 2.70074 v 1.22407 q 0.7189,-1.49609 2.44815,-1.49609 1.2435,0 2.19556,0.79662 l -0.3886,2.48701 q -0.89376,-0.62175 -2.02069,-0.62175 -0.93263,0 -1.59324,0.66061 -0.64118,0.64118 -0.64118,2.17613 v 6.62556 z m 16.20737,0 v -0.95208 q -1.18522,1.2241 -3.14762,1.2241 -1.90411,0 -3.10876,-1.0298 -1.18521,-1.02978 -1.18521,-2.91446 0,-1.92354 1.34065,-2.91446 1.36008,-0.99092 3.30306,-0.99092 1.69038,0 2.79788,0.62175 v -0.62175 q 0,-1.14635 -0.58289,-1.65153 -0.56346,-0.50517 -1.72925,-0.50517 -1.92354,0 -3.53622,1.1075 l -0.83548,-2.215 q 1.92355,-1.28236 4.64372,-1.28236 0.93262,0 1.6321,0.15544 0.7189,0.13601 1.45723,0.58289 0.75776,0.42745 1.16578,1.37951 0.42746,0.95206 0.42746,2.37043 v 7.63591 z m -2.64245,-2.11786 q 1.55438,0 2.64245,-1.12693 v -1.53494 q -1.02978,-0.48575 -2.37043,-0.48575 -1.08807,0 -1.76811,0.40803 -0.66061,0.38859 -0.66061,1.18521 0,0.7189 0.54404,1.14635 0.56346,0.40803 1.61266,0.40803 z m 8.54385,2.11786 v -11.85216 h 2.70074 v 1.22407 q 0.7189,-1.49609 2.44815,-1.49609 1.2435,0 2.19556,0.79662 l -0.3886,2.48701 q -0.89376,-0.62175 -2.02069,-0.62175 -0.93263,0 -1.59324,0.66061 -0.64118,0.64118 -0.64118,2.17613 v 6.62556 z m 11.99112,-13.95057 q -0.46631,0.46631 -1.14636,0.46631 -0.66061,0 -1.14635,-0.46631 -0.46631,-0.48575 -0.46631,-1.14636 0,-0.68004 0.46631,-1.14635 0.48574,-0.46632 1.14635,-0.46632 0.68005,0 1.14636,0.46632 0.46631,0.46631 0.46631,1.14635 0,0.66061 -0.46631,1.14636 z m -2.50644,13.95057 v -11.85216 h 2.70073 v 11.85216 z m 11.09803,0.27202 q -2.52586,0 -4.00253,-1.65155 -1.45723,-1.65153 -1.45723,-4.56599 0,-2.8756 1.47666,-4.52713 1.49609,-1.65153 3.9831,-1.65153 2.27328,0 3.73051,1.41837 1.45723,1.39894 1.45723,4.13854 0,0.95206 -0.0971,1.67095 h -7.86905 q 0.0777,1.26294 0.87433,2.0207 0.79662,0.75776 1.90412,0.75776 1.59324,0 2.50644,-1.22408 l 1.72924,1.76811 q -1.55438,1.84585 -4.23568,1.84585 z m -2.75903,-7.42218 h 5.24604 q -0.0972,-1.26294 -0.79662,-1.92355 -0.68005,-0.66061 -1.69039,-0.66061 -1.14635,0 -1.90412,0.64118 -0.75776,0.62175 -0.85491,1.94298 z m 14.52329,7.42218 q -1.4378,0 -2.70074,-0.54405 -1.26293,-0.56347 -1.90412,-1.4961 l 1.84583,-1.57381 q 1.26293,1.26294 2.75903,1.26294 1.92354,0 1.92354,-1.16579 0,-0.38859 -0.3303,-0.7189 -0.33031,-0.3303 -0.71891,-0.50517 -0.38859,-0.17487 -1.2435,-0.52461 -2.04013,-0.6606 -2.99218,-1.53494 -0.93263,-0.87434 -0.93263,-2.31214 0,-1.55438 1.18522,-2.40929 1.20464,-0.87434 3.05047,-0.87434 2.6813,0 4.23568,1.8264 l -1.86525,1.53494 q -1.04921,-1.01034 -2.37043,-1.01034 -1.61267,0 -1.61267,0.97149 0,0.50517 0.58289,0.85491 0.60232,0.3303 1.74868,0.69947 1.92354,0.66061 2.89503,1.55438 0.99091,0.87433 0.99091,2.44814 0,1.69039 -1.22407,2.60359 -1.22407,0.91322 -3.32248,0.91322 z"
       id="path17"
       inkscape:connector-curvature="0"
       style="fill:#ffffff;fill-rule:nonzero;stroke-width:1.24350369" />
    <path
       d="M 10.020627,79.053714 H 580.07404 V 135.25617 H 10.020627 Z"
       id="path19"
       inkscape:connector-curvature="0"
       style="fill:#93c47d;fill-rule:evenodd;stroke-width:1.24350369" />
    <path
       d="m 201.69616,118.99114 -1.28236,-3.55565 h -6.43125 l -1.26294,3.55565 h -2.95331 l 6.06207,-16.24327 h 2.75903 l 6.02322,16.24327 z m -2.1567,-6.06208 -1.78754,-4.85744 q -0.34974,-0.89377 -0.54403,-1.65153 -0.17487,0.66061 -0.5246,1.65153 l -1.80697,4.85744 z m 13.08628,6.33409 q -1.72925,0 -2.70074,-1.22407 v 4.37169 l -2.70073,1.24351 v -16.51529 h 2.70073 v 0.89377 q 0.97149,-1.16578 2.72016,-1.16578 2.25385,0 3.55565,1.6321 1.32122,1.63209 1.32122,4.58542 0,2.8756 -1.36008,4.52712 -1.34065,1.65153 -3.53621,1.65153 z m -0.40803,-2.58415 q 1.2435,0 1.90411,-0.93263 0.68004,-0.93263 0.68004,-2.66187 0,-1.65153 -0.68004,-2.64245 -0.66061,-1.01035 -1.90411,-1.01035 -1.49609,0 -2.29271,1.16579 v 4.91572 q 0.81605,1.16579 2.29271,1.16579 z m 13.60829,2.58415 q -1.72924,0 -2.70073,-1.22407 v 4.37169 l -2.70073,1.24351 v -16.51529 h 2.70073 v 0.89377 q 0.97149,-1.16578 2.72017,-1.16578 2.25385,0 3.55564,1.6321 1.32123,1.63209 1.32123,4.58542 0,2.8756 -1.36009,4.52712 -1.34065,1.65153 -3.53622,1.65153 z m -0.40802,-2.58415 q 1.24351,0 1.90412,-0.93263 0.68004,-0.93263 0.68004,-2.66187 0,-1.65153 -0.68004,-2.64245 -0.66061,-1.01035 -1.90412,-1.01035 -1.49609,0 -2.29271,1.16579 v 4.91572 q 0.81605,1.16579 2.29271,1.16579 z m 16.14449,-5.84836 q -0.5246,0.52461 -1.32122,0.52461 -0.77719,0 -1.32123,-0.52461 -0.5246,-0.5246 -0.5246,-1.28236 0,-0.75776 0.5246,-1.28236 0.54404,-0.52461 1.32123,-0.52461 0.79662,0 1.32122,0.54404 0.54404,0.5246 0.54404,1.26293 0,0.75776 -0.54404,1.28236 z m 0,7.92734 q -0.5246,0.50517 -1.32122,0.50517 -0.77719,0 -1.32123,-0.50517 -0.5246,-0.5246 -0.5246,-1.28236 0,-0.77719 0.5246,-1.3018 0.54404,-0.5246 1.32123,-0.5246 0.79662,0 1.32122,0.54404 0.54404,0.5246 0.54404,1.26293 0,0.77719 -0.54404,1.30179 z m 9.02588,-16.01011 h 6.64497 q 2.72016,0 3.94424,1.24351 1.2435,1.22407 1.2435,3.08932 0,2.33158 -2.07898,3.34192 1.34065,0.48574 2.00126,1.53495 0.66062,1.02978 0.66062,2.23442 0,1.94297 -1.34066,3.38078 -1.32122,1.41837 -4.08024,1.41837 h -6.99471 z m 6.27581,6.54782 q 1.34065,0 2.04012,-0.5246 0.7189,-0.54403 0.7189,-1.47666 0,-1.96241 -2.31214,-1.96241 h -3.92481 v 3.96367 z m 0.87433,7.11129 q 1.3018,0 1.86526,-0.62175 0.58289,-0.64118 0.58289,-1.53495 0,-2.38986 -3.10876,-2.38986 h -3.69165 v 4.54656 z m 15.61997,2.58416 v -1.14636 q -1.1075,1.41837 -3.10876,1.41837 -1.86526,0 -3.05048,-1.16578 -1.16578,-1.16578 -1.16578,-3.69165 v -7.26673 h 2.70073 v 6.78098 q 0,2.75903 2.23443,2.75903 2.38986,0 2.38986,-2.72017 v -6.81984 h 2.72015 v 11.85215 z m 9.98943,0.27201 q -1.4378,0 -2.70074,-0.54403 -1.26294,-0.56346 -1.90412,-1.49609 l 1.84583,-1.57381 q 1.26293,1.26293 2.75903,1.26293 1.92354,0 1.92354,-1.16578 0,-0.38859 -0.3303,-0.7189 -0.33031,-0.33031 -0.71891,-0.50518 -0.38859,-0.17486 -1.2435,-0.52459 -2.04013,-0.66062 -2.99218,-1.53496 -0.93263,-0.87434 -0.93263,-2.31213 0,-1.55439 1.18522,-2.4093 1.20464,-0.87433 3.05047,-0.87433 2.6813,0 4.23568,1.82639 l -1.86525,1.53495 q -1.04921,-1.01034 -2.37043,-1.01034 -1.61268,0 -1.61268,0.97148 0,0.50518 0.5829,0.85491 0.60232,0.33031 1.74868,0.69947 1.92354,0.66061 2.89503,1.55438 0.99091,0.87434 0.99091,2.44815 0,1.69039 -1.22407,2.60358 -1.22407,0.9132 -3.32248,0.9132 z m 9.98863,-14.22257 q -0.46631,0.46631 -1.14635,0.46631 -0.66062,0 -1.14636,-0.46631 -0.46631,-0.48574 -0.46631,-1.14635 0,-0.68005 0.46631,-1.14636 0.48574,-0.46631 1.14636,-0.46631 0.68004,0 1.14635,0.46631 0.46631,0.46631 0.46631,1.14636 0,0.66061 -0.46631,1.14635 z m -2.50643,13.95056 v -11.85215 h 2.70073 v 11.85215 z m 13.54617,0 v -6.80041 q 0,-2.75903 -2.21499,-2.75903 -2.40929,0 -2.40929,2.72017 v 6.83927 h -2.70074 v -11.85215 h 2.70074 v 1.1075 q 1.16578,-1.37951 3.12819,-1.37951 1.86525,0 3.03104,1.16578 1.18522,1.14635 1.18522,3.67223 v 7.28615 z m 10.96092,0.27201 q -2.52587,0 -4.00253,-1.65153 -1.45723,-1.65152 -1.45723,-4.56599 0,-2.8756 1.47666,-4.52713 1.49609,-1.65152 3.9831,-1.65152 2.27328,0 3.73051,1.41837 1.45723,1.39894 1.45723,4.13853 0,0.95206 -0.0971,1.67096 h -7.86905 q 0.0777,1.26294 0.87435,2.0207 0.79661,0.75775 1.90411,0.75775 1.59324,0 2.50644,-1.22407 l 1.72925,1.76811 q -1.55438,1.84582 -4.23569,1.84582 z m -2.75903,-7.42216 h 5.24604 q -0.0971,-1.26293 -0.79662,-1.92355 -0.68004,-0.66061 -1.69039,-0.66061 -1.14636,0 -1.90411,0.64119 -0.75777,0.62175 -0.85492,1.94297 z m 14.52329,7.42216 q -1.43781,0 -2.70074,-0.54403 -1.26293,-0.56346 -1.90411,-1.49609 l 1.84582,-1.57381 q 1.26293,1.26293 2.75903,1.26293 1.92354,0 1.92354,-1.16578 0,-0.38859 -0.33031,-0.7189 -0.3303,-0.33031 -0.7189,-0.50518 -0.38859,-0.17486 -1.2435,-0.52459 -2.04012,-0.66062 -2.99218,-1.53496 -0.93263,-0.87434 -0.93263,-2.31213 0,-1.55439 1.18522,-2.4093 1.20464,-0.87433 3.05046,-0.87433 2.68131,0 4.23569,1.82639 l -1.86526,1.53495 q -1.0492,-1.01034 -2.37043,-1.01034 -1.61266,0 -1.61266,0.97148 0,0.50518 0.58289,0.85491 0.60232,0.33031 1.74868,0.69947 1.92354,0.66061 2.89503,1.55438 0.99091,0.87434 0.99091,2.44815 0,1.69039 -1.22407,2.60358 -1.22407,0.9132 -3.32248,0.9132 z m 11.25156,0 q -1.4378,0 -2.70073,-0.54403 -1.26293,-0.56346 -1.90412,-1.49609 l 1.84583,-1.57381 q 1.26293,1.26293 2.75902,1.26293 1.92355,0 1.92355,-1.16578 0,-0.38859 -0.33031,-0.7189 -0.3303,-0.33031 -0.71889,-0.50518 -0.3886,-0.17486 -1.24351,-0.52459 -2.04012,-0.66062 -2.99218,-1.53496 -0.93263,-0.87434 -0.93263,-2.31213 0,-1.55439 1.18521,-2.4093 1.20465,-0.87433 3.05048,-0.87433 2.6813,0 4.23568,1.82639 l -1.86526,1.53495 q -1.0492,-1.01034 -2.37042,-1.01034 -1.61267,0 -1.61267,0.97148 0,0.50518 0.58289,0.85491 0.60232,0.33031 1.74867,0.69947 1.92355,0.66061 2.89504,1.55438 0.99092,0.87434 0.99092,2.44815 0,1.69039 -1.22408,2.60358 -1.22407,0.9132 -3.32249,0.9132 z m 13.26316,-0.27201 v -15.46608 l 2.70073,-1.28236 v 16.74844 z m 11.14759,0.27201 q -2.50644,0 -3.96367,-1.6321 -1.45723,-1.65153 -1.45723,-4.54655 0,-2.91447 1.45723,-4.566 1.45723,-1.65152 3.96367,-1.65152 2.50643,0 3.9831,1.65152 1.47666,1.65153 1.47666,4.566 0,2.89502 -1.47666,4.54655 -1.45723,1.6321 -3.9831,1.6321 z m 0,-2.58415 q 1.28236,0 2.00126,-0.95206 0.73833,-0.95206 0.73833,-2.64244 0,-1.70982 -0.73833,-2.68131 -0.7189,-0.97149 -2.00126,-0.97149 -1.22407,0 -1.98184,0.99092 -0.73833,0.99092 -0.73833,2.66188 0,1.65153 0.73833,2.62301 0.73834,0.97149 1.98184,0.97149 z m 12.48141,6.95585 -1.4378,-2.17614 q 2.42871,-0.17486 3.36134,-0.77718 0.95206,-0.5829 0.95206,-1.80697 v -0.68004 q -0.97149,1.06863 -2.6813,1.06863 -2.19556,0 -3.55565,-1.61266 -1.34065,-1.61267 -1.34065,-4.60486 0,-2.8756 1.34065,-4.52713 1.36009,-1.65152 3.57508,-1.65152 1.67095,0 2.66187,0.99092 v -0.71891 h 2.72017 v 10.66693 q 0,2.95332 -1.26293,4.27455 -1.26294,1.32122 -4.33284,1.55438 z m 0.66061,-6.95585 q 1.45723,0 2.21499,-1.16579 v -4.91572 q -0.81605,-1.16579 -2.21499,-1.16579 -1.28236,0 -1.98183,0.93263 -0.68004,0.93263 -0.68004,2.6813 0,1.67096 0.69946,2.66188 0.69948,0.97149 1.96241,0.97149 z m 10.94638,-11.63842 q -0.46631,0.46631 -1.14635,0.46631 -0.66061,0 -1.14636,-0.46631 -0.46631,-0.48574 -0.46631,-1.14635 0,-0.68005 0.46631,-1.14636 0.48575,-0.46631 1.14636,-0.46631 0.68004,0 1.14635,0.46631 0.46632,0.46631 0.46632,1.14636 0,0.66061 -0.46632,1.14635 z m -2.50643,13.95056 v -11.85215 h 2.70073 v 11.85215 z m 10.92316,0.27201 q -2.42872,0 -3.86652,-1.6321 -1.41837,-1.65153 -1.41837,-4.54655 0,-2.91447 1.41837,-4.566 1.4378,-1.65152 3.86652,-1.65152 3.67222,0 4.702,3.26419 l -2.56473,0.85491 q -0.58289,-1.53495 -2.04012,-1.53495 -1.24351,0 -1.94298,0.99092 -0.68004,0.97149 -0.68004,2.64245 0,1.63209 0.68004,2.60358 0.68004,0.95206 1.84583,0.95206 1.65153,0 2.1567,-1.70982 l 2.60359,0.79662 q -1.02978,3.53621 -4.76029,3.53621 z"
       id="path21"
       inkscape:connector-curvature="0"
       style="fill:#ffffff;fill-rule:nonzero;stroke-width:1.24350369" />
  </g>
</svg>
