<?xml version="1.0" encoding="UTF-8" standalone="no"?>
<svg
   xmlns:dc="http://purl.org/dc/elements/1.1/"
   xmlns:cc="http://creativecommons.org/ns#"
   xmlns:rdf="http://www.w3.org/1999/02/22-rdf-syntax-ns#"
   xmlns:svg="http://www.w3.org/2000/svg"
   xmlns="http://www.w3.org/2000/svg"
   xmlns:sodipodi="http://sodipodi.sourceforge.net/DTD/sodipodi-0.dtd"
   xmlns:inkscape="http://www.inkscape.org/namespaces/inkscape"
   version="1.1"
   viewBox="0 0 484.91703 364.48456"
   stroke-miterlimit="10"
   id="svg69"
   sodipodi:docname="scaling-up.svg"
   width="484.91702"
   height="364.48456"
   style="fill:none;stroke:none;stroke-linecap:square;stroke-miterlimit:10"
   inkscape:version="0.92.4 5da689c313, 2019-01-14">
  <metadata
     id="metadata75">
    <rdf:RDF>
      <cc:Work
         rdf:about="">
        <dc:format>image/svg+xml</dc:format>
        <dc:type
           rdf:resource="http://purl.org/dc/dcmitype/StillImage" />
        <dc:title></dc:title>
      </cc:Work>
    </rdf:RDF>
  </metadata>
  <defs
     id="defs73" />
  <sodipodi:namedview
     pagecolor="#ffffff"
     bordercolor="#666666"
     borderopacity="1"
     objecttolerance="10"
     gridtolerance="10"
     guidetolerance="10"
     inkscape:pageopacity="0"
     inkscape:pageshadow="2"
     inkscape:window-width="1890"
     inkscape:window-height="974"
     id="namedview71"
     showgrid="false"
     fit-margin-top="0"
     fit-margin-left="0"
     fit-margin-right="0"
     fit-margin-bottom="0"
     inkscape:zoom="1"
     inkscape:cx="82.332778"
     inkscape:cy="249.59615"
     inkscape:window-x="30"
     inkscape:window-y="30"
     inkscape:window-maximized="1"
     inkscape:current-layer="g67" />
  <clipPath
     id="g50b4287ea6_0_0.0">
    <path
       d="M 0,0 H 960 V 540 H 0 Z"
       id="path2"
       inkscape:connector-curvature="0"
       style="clip-rule:nonzero" />
  </clipPath>
  <g
     clip-path="url(#g50b4287ea6_0_0.0)"
     id="g67"
     transform="translate(-128.08266,-68.874016)">
    <path
       d="m 254.38137,271.05984 h 93.12212 v 46.91615 h -93.12212 z"
       id="path7"
       inkscape:connector-curvature="0"
       style="fill:#6aa84f;fill-rule:evenodd;stroke-width:1.32643652" />
    <path
       d="m 291.66475,303.69688 -1.36788,-3.79279 h -6.86017 l -1.34715,3.79279 h -3.15029 l 6.46637,-17.32658 h 2.94303 l 6.42493,17.32658 z m -2.30054,-6.46638 -1.90675,-5.1814 q -0.37306,-0.95337 -0.58032,-1.76167 -0.18652,0.70467 -0.55958,1.76167 l -1.92749,5.1814 z m 13.95904,6.75654 q -1.84458,0 -2.88086,-1.30572 v 4.66326 l -2.88087,1.32644 v -17.61674 h 2.88087 v 0.95338 q 1.03628,-1.24354 2.90159,-1.24354 2.40416,0 3.79278,1.74095 1.40934,1.74095 1.40934,4.89124 0,3.06737 -1.45079,4.82904 -1.43007,1.76169 -3.77206,1.76169 z m -0.43524,-2.75651 q 1.32644,0 2.03111,-0.99483 0.7254,-0.99482 0.7254,-2.83939 0,-1.76169 -0.7254,-2.81869 -0.70467,-1.07772 -2.03111,-1.07772 -1.59586,0 -2.44562,1.24353 v 5.24356 q 0.87048,1.24354 2.44562,1.24354 z m 14.51588,2.75651 q -1.84458,0 -2.88085,-1.30572 v 4.66326 l -2.88087,1.32644 v -17.61674 h 2.88087 v 0.95338 q 1.03627,-1.24354 2.90158,-1.24354 2.40416,0 3.79277,1.74095 1.40934,1.74095 1.40934,4.89124 0,3.06737 -1.4508,4.82904 -1.43005,1.76169 -3.77204,1.76169 z m -0.43523,-2.75651 q 1.32643,0 2.0311,-0.99483 0.72539,-0.99482 0.72539,-2.83939 0,-1.76169 -0.72539,-2.81869 -0.70467,-1.07772 -2.0311,-1.07772 -1.59588,0 -2.44562,1.24353 v 5.24356 q 0.87047,1.24354 2.44562,1.24354 z"
       id="path9"
       inkscape:connector-curvature="0"
       style="fill:#ffffff;fill-rule:nonzero;stroke-width:1.32643652" />
    <path
       d="m 384.98491,204.14617 h 93.1221 v 46.91618 h -93.1221 z"
       id="path11"
       inkscape:connector-curvature="0"
       style="fill:#6aa84f;fill-rule:evenodd;stroke-width:1.32643652" />
    <path
       d="m 422.26827,236.78319 -1.36789,-3.79278 h -6.86017 l -1.34715,3.79278 h -3.15029 l 6.46637,-17.32657 h 2.94304 l 6.42492,17.32657 z m -2.30054,-6.46637 -1.90675,-5.1814 q -0.37307,-0.95338 -0.58033,-1.76168 -0.18651,0.70467 -0.55957,1.76168 l -1.92749,5.1814 z m 13.95904,6.75654 q -1.84458,0 -2.88086,-1.30572 v 4.66325 l -2.88084,1.32644 V 224.1406 h 2.88084 v 0.95338 q 1.03628,-1.24354 2.90158,-1.24354 2.40417,0 3.79279,1.74095 1.40934,1.74094 1.40934,4.89123 0,3.06738 -1.45079,4.82905 -1.43008,1.76169 -3.77206,1.76169 z m -0.43524,-2.75652 q 1.32644,0 2.03111,-0.99482 0.72539,-0.99483 0.72539,-2.8394 0,-1.76168 -0.72539,-2.81868 -0.70467,-1.07773 -2.03111,-1.07773 -1.59586,0 -2.44562,1.24354 v 5.24356 q 0.87047,1.24353 2.44562,1.24353 z m 14.51587,2.75652 q -1.84457,0 -2.88085,-1.30572 v 4.66325 l -2.88086,1.32644 V 224.1406 h 2.88086 v 0.95338 q 1.03628,-1.24354 2.90159,-1.24354 2.40416,0 3.79277,1.74095 1.40934,1.74094 1.40934,4.89123 0,3.06738 -1.4508,4.82905 -1.43005,1.76169 -3.77205,1.76169 z m -0.43523,-2.75652 q 1.32644,0 2.03111,-0.99482 0.72538,-0.99483 0.72538,-2.8394 0,-1.76168 -0.72538,-2.81868 -0.70467,-1.07773 -2.03111,-1.07773 -1.59588,0 -2.44562,1.24354 v 5.24356 q 0.87048,1.24353 2.44562,1.24353 z"
       id="path13"
       inkscape:connector-curvature="0"
       style="fill:#ffffff;fill-rule:nonzero;stroke-width:1.32643652" />
    <path
       d="m 384.98491,271.05984 h 93.1221 v 46.91615 h -93.1221 z"
       id="path15"
       inkscape:connector-curvature="0"
       style="fill:#6aa84f;fill-rule:evenodd;stroke-width:1.32643652" />
    <path
       d="m 422.26827,303.69688 -1.36789,-3.79279 h -6.86017 l -1.34715,3.79279 h -3.15029 l 6.46637,-17.32658 h 2.94304 l 6.42492,17.32658 z m -2.30054,-6.46638 -1.90675,-5.1814 q -0.37307,-0.95337 -0.58033,-1.76167 -0.18651,0.70467 -0.55957,1.76167 l -1.92749,5.1814 z m 13.95904,6.75654 q -1.84458,0 -2.88086,-1.30572 v 4.66326 l -2.88084,1.32644 v -17.61674 h 2.88084 v 0.95338 q 1.03628,-1.24354 2.90158,-1.24354 2.40417,0 3.79279,1.74095 1.40934,1.74095 1.40934,4.89124 0,3.06737 -1.45079,4.82904 -1.43008,1.76169 -3.77206,1.76169 z m -0.43524,-2.75651 q 1.32644,0 2.03111,-0.99483 0.72539,-0.99482 0.72539,-2.83939 0,-1.76169 -0.72539,-2.81869 -0.70467,-1.07772 -2.03111,-1.07772 -1.59586,0 -2.44562,1.24353 v 5.24356 q 0.87047,1.24354 2.44562,1.24354 z m 14.51587,2.75651 q -1.84457,0 -2.88085,-1.30572 v 4.66326 l -2.88086,1.32644 v -17.61674 h 2.88086 v 0.95338 q 1.03628,-1.24354 2.90159,-1.24354 2.40416,0 3.79277,1.74095 1.40934,1.74095 1.40934,4.89124 0,3.06737 -1.4508,4.82904 -1.43005,1.76169 -3.77205,1.76169 z m -0.43523,-2.75651 q 1.32644,0 2.03111,-0.99483 0.72538,-0.99482 0.72538,-2.83939 0,-1.76169 -0.72538,-2.81869 -0.70467,-1.07772 -2.03111,-1.07772 -1.59588,0 -2.44562,1.24353 v 5.24356 q 0.87048,1.24354 2.44562,1.24354 z"
       id="path17"
       inkscape:connector-curvature="0"
       style="fill:#ffffff;fill-rule:nonzero;stroke-width:1.32643652" />
    <path
       d="m 507.63673,205.24631 h 93.12214 v 46.91616 h -93.12214 z"
       id="path19"
       inkscape:connector-curvature="0"
       style="fill:#6aa84f;fill-rule:evenodd;stroke-width:1.32643652" />
    <path
       d="m 544.92013,237.88333 -1.36789,-3.79279 h -6.86016 l -1.34716,3.79279 h -3.15029 l 6.46637,-17.32658 h 2.94304 l 6.42493,17.32658 z m -2.30053,-6.46639 -1.90675,-5.18139 q -0.37306,-0.95337 -0.58031,-1.76168 -0.18654,0.70467 -0.55961,1.76168 l -1.92747,5.18139 z m 13.95899,6.75655 q -1.84458,0 -2.88086,-1.30572 v 4.66326 l -2.88084,1.32644 v -17.61674 h 2.88084 v 0.95338 q 1.03628,-1.24354 2.90158,-1.24354 2.40417,0 3.79279,1.74095 1.40934,1.74095 1.40934,4.89124 0,3.06738 -1.45079,4.82905 -1.43008,1.76168 -3.77206,1.76168 z m -0.43524,-2.75652 q 1.32644,0 2.03111,-0.99482 0.72539,-0.99483 0.72539,-2.83939 0,-1.76169 -0.72539,-2.81868 -0.70467,-1.07774 -2.03111,-1.07774 -1.59586,0 -2.44562,1.24354 v 5.24357 q 0.87047,1.24352 2.44562,1.24352 z m 14.51591,2.75652 q -1.84457,0 -2.88085,-1.30572 v 4.66326 l -2.88086,1.32644 v -17.61674 h 2.88086 v 0.95338 q 1.03628,-1.24354 2.90159,-1.24354 2.40416,0 3.79277,1.74095 1.40934,1.74095 1.40934,4.89124 0,3.06738 -1.45079,4.82905 -1.43006,1.76168 -3.77206,1.76168 z m -0.43523,-2.75652 q 1.32644,0 2.03111,-0.99482 0.72538,-0.99483 0.72538,-2.83939 0,-1.76169 -0.72538,-2.81868 -0.70467,-1.07774 -2.03111,-1.07774 -1.59588,0 -2.44562,1.24354 v 5.24357 q 0.87048,1.24352 2.44562,1.24352 z"
       id="path21"
       inkscape:connector-curvature="0"
       style="fill:#ffffff;fill-rule:nonzero;stroke-width:1.32643652" />
    <path
       d="m 507.63673,272.16 h 93.12214 v 46.91615 h -93.12214 z"
       id="path23"
       inkscape:connector-curvature="0"
       style="fill:#6aa84f;fill-rule:evenodd;stroke-width:1.32643652" />
    <path
       d="m 544.92013,304.79701 -1.36789,-3.79278 h -6.86016 l -1.34716,3.79278 h -3.15029 l 6.46637,-17.32657 h 2.94304 l 6.42493,17.32657 z m -2.30053,-6.46637 -1.90675,-5.1814 q -0.37306,-0.95338 -0.58031,-1.76168 -0.18654,0.70466 -0.55961,1.76168 l -1.92747,5.1814 z m 13.95899,6.75653 q -1.84458,0 -2.88086,-1.30572 v 4.66326 l -2.88084,1.32644 v -17.61674 h 2.88084 v 0.95338 q 1.03628,-1.24354 2.90158,-1.24354 2.40417,0 3.79279,1.74095 1.40934,1.74095 1.40934,4.89124 0,3.06738 -1.45079,4.82905 -1.43008,1.76168 -3.77206,1.76168 z m -0.43524,-2.7565 q 1.32644,0 2.03111,-0.99484 0.72539,-0.99483 0.72539,-2.83939 0,-1.76168 -0.72539,-2.81868 -0.70467,-1.07773 -2.03111,-1.07773 -1.59586,0 -2.44562,1.24353 v 5.24357 q 0.87047,1.24354 2.44562,1.24354 z m 14.51591,2.7565 q -1.84457,0 -2.88085,-1.30572 v 4.66326 l -2.88086,1.32644 v -17.61674 h 2.88086 v 0.95338 q 1.03628,-1.24354 2.90159,-1.24354 2.40416,0 3.79277,1.74095 1.40934,1.74095 1.40934,4.89124 0,3.06738 -1.45079,4.82905 -1.43006,1.76168 -3.77206,1.76168 z m -0.43523,-2.7565 q 1.32644,0 2.03111,-0.99484 0.72538,-0.99483 0.72538,-2.83939 0,-1.76168 -0.72538,-2.81868 -0.70467,-1.07773 -2.03111,-1.07773 -1.59588,0 -2.44562,1.24353 v 5.24357 q 0.87048,1.24354 2.44562,1.24354 z"
       id="path25"
       inkscape:connector-curvature="0"
       style="fill:#ffffff;fill-rule:nonzero;stroke-width:1.32643652" />
    <path
       d="m 507.63673,138.33264 h 93.12214 v 46.91616 h -93.12214 z"
       id="path27"
       inkscape:connector-curvature="0"
       style="fill:#6aa84f;fill-rule:evenodd;stroke-width:1.32643652" />
    <path
       d="m 544.92013,170.96967 -1.36789,-3.79278 h -6.86016 l -1.34716,3.79278 h -3.15029 L 538.661,153.6431 h 2.94304 l 6.42493,17.32657 z m -2.30053,-6.46638 -1.90675,-5.18139 q -0.37306,-0.95338 -0.58031,-1.76168 -0.18654,0.70467 -0.55961,1.76168 l -1.92747,5.18139 z m 13.95899,6.75654 q -1.84458,0 -2.88086,-1.30572 v 4.66326 l -2.88084,1.32644 v -17.61673 h 2.88084 v 0.95337 q 1.03628,-1.24354 2.90158,-1.24354 2.40417,0 3.79279,1.74095 1.40934,1.74095 1.40934,4.89124 0,3.06738 -1.45079,4.82905 -1.43008,1.76168 -3.77206,1.76168 z m -0.43524,-2.75651 q 1.32644,0 2.03111,-0.99482 0.72539,-0.99484 0.72539,-2.8394 0,-1.76168 -0.72539,-2.81868 -0.70467,-1.07773 -2.03111,-1.07773 -1.59586,0 -2.44562,1.24353 v 5.24357 q 0.87047,1.24353 2.44562,1.24353 z m 14.51591,2.75651 q -1.84457,0 -2.88085,-1.30572 v 4.66326 l -2.88086,1.32644 v -17.61673 h 2.88086 v 0.95337 q 1.03628,-1.24354 2.90159,-1.24354 2.40416,0 3.79277,1.74095 1.40934,1.74095 1.40934,4.89124 0,3.06738 -1.45079,4.82905 -1.43006,1.76168 -3.77206,1.76168 z m -0.43523,-2.75651 q 1.32644,0 2.03111,-0.99482 0.72538,-0.99484 0.72538,-2.8394 0,-1.76168 -0.72538,-2.81868 -0.70467,-1.07773 -2.03111,-1.07773 -1.59588,0 -2.44562,1.24353 v 5.24357 q 0.87048,1.24353 2.44562,1.24353 z"
       id="path29"
       inkscape:connector-curvature="0"
       style="fill:#ffffff;fill-rule:nonzero;stroke-width:1.32643652" />
    <path
       d="m 134.46595,289.717 h 93.12209 v 28.2416 h -93.12209 z"
       id="path31"
       inkscape:connector-curvature="0"
       style="fill:#6aa84f;fill-rule:evenodd;stroke-width:1.32643652" />
    <path
       d="m 181.01792,313.3069 q -1.40933,0 -2.52851,-0.51815 -1.09847,-0.53887 -1.80315,-1.38861 -0.68395,-0.84975 -1.13991,-2.05183 -0.43523,-1.20209 -0.62176,-2.40417 -0.18653,-1.22281 -0.18653,-2.59069 0,-1.30572 0.16581,-2.5078 0.18652,-1.2228 0.64248,-2.42489 0.45596,-1.20208 1.13991,-2.07255 0.68396,-0.87048 1.80315,-1.40934 1.11918,-0.53887 2.52851,-0.53887 1.76167,0 3.02594,0.78757 1.28499,0.76684 1.96892,2.11401 0.68395,1.32644 0.99483,2.8394 0.31089,1.49224 0.31089,3.21247 0,1.67877 -0.31089,3.15029 -0.29016,1.47151 -0.97409,2.83939 -0.68395,1.36789 -1.96894,2.17619 -1.28499,0.78758 -3.04666,0.78758 z m 0,-2.81869 q 0.95339,0 1.6166,-0.51814 0.66322,-0.53886 1.01555,-1.45079 0.35234,-0.91192 0.49741,-1.9482 0.1658,-1.03627 0.1658,-2.21763 0,-1.24353 -0.1658,-2.2591 -0.14507,-1.03627 -0.51813,-1.92747 -0.35235,-0.91192 -1.01556,-1.43006 -0.66322,-0.51814 -1.59587,-0.51814 -0.93265,0 -1.59587,0.51814 -0.66322,0.51814 -1.01554,1.45078 -0.35234,0.93266 -0.49742,1.94821 -0.14508,1.01556 -0.14508,2.23836 0,1.20208 0.14508,2.23836 0.1658,1.03628 0.51813,1.94821 0.35234,0.8912 1.01557,1.40933 0.66321,0.51814 1.57513,0.51814 z"
       id="path33"
       inkscape:connector-curvature="0"
       style="fill:#ffffff;fill-rule:nonzero;stroke-width:1.32643652" />
    <path
       d="m 281.63075,345.08614 14.12082,-14.12079 14.12079,14.12079 h -7.06038 v 40.06467 h -14.12082 v -40.06467 z"
       id="path35"
       inkscape:connector-curvature="0"
       style="fill:#eeeeee;fill-rule:evenodd;stroke-width:1.32643652" />
    <path
       d="m 281.63075,345.08614 14.12082,-14.12079 14.12079,14.12079 h -7.06038 v 40.06467 h -14.12082 v -40.06467 z"
       id="path37"
       inkscape:connector-curvature="0"
       style="fill-rule:evenodd;stroke:#595959;stroke-width:1.32643652;stroke-linecap:butt;stroke-linejoin:round" />
    <path
       d="m 417.42512,352.09433 14.12083,-14.12083 14.12079,14.12083 h -7.06041 v 40.06463 h -14.12079 v -40.06463 z"
       id="path39"
       inkscape:connector-curvature="0"
       style="fill:#eeeeee;fill-rule:evenodd;stroke-width:1.32643652" />
    <path
       d="m 417.42512,352.09433 14.12083,-14.12083 14.12079,14.12083 h -7.06041 v 40.06463 h -14.12079 v -40.06463 z"
       id="path41"
       inkscape:connector-curvature="0"
       style="fill-rule:evenodd;stroke:#595959;stroke-width:1.32643652;stroke-linecap:butt;stroke-linejoin:round" />
    <path
       d="m 242.11966,398.14011 h 117.60373 v 35.21846 H 242.11966 Z"
       id="path43"
       inkscape:connector-curvature="0"
       style="fill:#3c78d8;fill-rule:evenodd;stroke-width:1.32643652" />
    <path
       d="m 266.66386,420.71023 v -7.89645 h -1.65804 v -0.82902 q 1.59586,0 1.98966,-1.16064 h 0.89118 v 9.88611 z m 6.37081,0.1658 q -0.78757,0 -1.49223,-0.33161 -0.68396,-0.33161 -1.13992,-0.87047 l 0.8912,-0.76685 q 0.8083,0.87047 1.76167,0.87047 0.60105,0 0.97411,-0.22797 0.37307,-0.24871 0.37307,-0.68395 0,-0.35233 -0.26944,-0.62177 -0.26943,-0.26943 -0.55959,-0.39378 -0.26944,-0.14509 -0.82902,-0.35234 -1.09847,-0.41451 -1.67878,-0.91192 -0.55959,-0.51814 -0.55959,-1.36789 0,-0.87047 0.68395,-1.38861 0.68395,-0.51814 1.74095,-0.51814 1.51296,0 2.4456,1.09846 l -0.84974,0.70467 q -0.66321,-0.68395 -1.59586,-0.68395 -0.55959,0 -0.8912,0.20725 -0.3109,0.20726 -0.3109,0.58032 0,0.22798 0.1036,0.41451 0.1036,0.1658 0.37306,0.33161 0.29016,0.14508 0.43524,0.22798 0.1658,0.0622 0.62176,0.22798 1.13991,0.41451 1.74094,0.95338 0.60106,0.51814 0.60106,1.45078 0,0.97412 -0.70467,1.51298 -0.68395,0.53886 -1.86531,0.53886 z m 6.44278,0 q -1.53369,0 -1.53369,-1.72023 v -4.60107 H 276.7624 V 413.477 h 1.18136 v -2.38344 l 1.22281,-0.58031 v 2.96375 h 1.78239 v 1.07773 h -1.78239 v 4.18656 q 0,0.4767 0.14508,0.74612 0.1658,0.24871 0.62177,0.24871 0.47668,0 1.057,-0.37306 l -0.12429,1.18136 q -0.62177,0.33161 -1.3886,0.33161 z m 6.86724,-0.1658 v -9.88611 h 3.89641 q 1.63733,0 2.38345,0.80831 0.74612,0.78757 0.74612,1.98965 0,0.9741 -0.58031,1.76167 -0.55961,0.76685 -1.72023,0.99483 l 2.114,4.33165 h -1.38861 l -2.0311,-4.24875 h -2.19691 v 4.24875 z m 1.22282,-5.38865 h 2.69432 q 0.9741,0 1.40935,-0.47669 0.45596,-0.47669 0.45596,-1.18135 0,-0.68396 -0.43524,-1.18137 -0.43523,-0.51813 -1.43007,-0.51813 h -2.69432 z m 10.74691,5.55445 q -1.47151,0 -2.34198,-1.03628 -0.87047,-1.057 -0.87047,-2.7565 0,-1.76167 0.87047,-2.7565 0.89119,-1.01555 2.34198,-1.01555 1.30572,0 2.13474,0.87047 0.84974,0.87048 0.84974,2.56997 0,0.39379 -0.0414,0.82902 h -4.89124 q 0.0622,0.97411 0.60105,1.57514 0.55958,0.60105 1.36789,0.60105 0.91192,0 1.55441,-0.64249 l 0.74612,0.82901 q -0.93264,0.93266 -2.32126,0.93266 z m -1.96893,-4.35236 h 3.70988 q -0.0207,-1.11919 -0.53887,-1.6166 -0.51813,-0.49741 -1.20208,-0.49741 -0.82903,0 -1.36789,0.53886 -0.53886,0.51814 -0.60104,1.57515 z m 9.36631,4.35236 q -1.36789,0 -2.19692,-0.99482 -0.80829,-1.01556 -0.80829,-2.77723 0,-1.74095 0.78756,-2.7565 0.80831,-1.03628 2.17619,-1.03628 0.99483,0 1.86531,0.78757 V 413.477 h 1.2228 v 9.51304 l -1.2228,0.53887 v -3.50263 q -0.74613,0.84975 -1.82385,0.84975 z m 0.1036,-1.13991 q 0.95337,0 1.72022,-0.99483 v -3.31609 q -0.58032,-0.9741 -1.72022,-0.9741 -0.84975,0 -1.3679,0.74613 -0.49741,0.74611 -0.49741,1.90675 0,1.26425 0.4767,1.9482 0.49741,0.68394 1.38861,0.68394 z m 9.65746,0.97411 v -0.68395 q -0.66322,0.84975 -1.82385,0.84975 -1.30571,0 -1.96892,-0.74612 -0.66322,-0.76685 -0.66322,-2.46635 V 413.477 h 1.24353 v 4.3731 q 0,0.97409 0.41451,1.43006 0.41452,0.45596 1.1399,0.45596 1.65805,0 1.65805,-1.8653 V 413.477 h 1.22281 v 7.23323 z m 6.36215,0.1658 q -1.47151,0 -2.34199,-1.03628 -0.87047,-1.057 -0.87047,-2.7565 0,-1.76167 0.87047,-2.7565 0.8912,-1.01555 2.34199,-1.01555 1.30571,0 2.13473,0.87047 0.84974,0.87048 0.84974,2.56997 0,0.39379 -0.0414,0.82902 h -4.89124 q 0.0622,0.97411 0.60106,1.57514 0.55958,0.60105 1.36789,0.60105 0.91192,0 1.55441,-0.64249 l 0.74611,0.82901 q -0.93264,0.93266 -2.32126,0.93266 z m -1.96892,-4.35236 h 3.70987 q -0.0207,-1.11919 -0.53887,-1.6166 -0.51813,-0.49741 -1.20208,-0.49741 -0.82903,0 -1.36789,0.53886 -0.53887,0.51814 -0.60103,1.57515 z m 8.93105,4.35236 q -0.78757,0 -1.49224,-0.33161 -0.68394,-0.33161 -1.13991,-0.87047 l 0.8912,-0.76685 q 0.80831,0.87047 1.76168,0.87047 0.60104,0 0.9741,-0.22797 0.37305,-0.24871 0.37305,-0.68395 0,-0.35233 -0.26942,-0.62177 -0.26944,-0.26943 -0.55959,-0.39378 -0.26943,-0.14509 -0.82903,-0.35234 -1.09845,-0.41451 -1.67876,-0.91192 -0.5596,-0.51814 -0.5596,-1.36789 0,-0.87047 0.68395,-1.38861 0.68393,-0.51814 1.74095,-0.51814 1.51296,0 2.44561,1.09846 l -0.84975,0.70467 q -0.66322,-0.68395 -1.59586,-0.68395 -0.5596,0 -0.8912,0.20725 -0.31089,0.20726 -0.31089,0.58032 0,0.22798 0.1036,0.41451 0.10359,0.1658 0.37305,0.33161 0.29017,0.14508 0.43526,0.22798 0.1658,0.0622 0.62176,0.22798 1.1399,0.41451 1.74095,0.95338 0.60103,0.51814 0.60103,1.45078 0,0.97412 -0.70467,1.51298 -0.68394,0.53886 -1.8653,0.53886 z m 6.44278,0 q -1.53369,0 -1.53369,-1.72023 v -4.60107 h -1.18137 V 413.477 h 1.18137 v -2.38344 l 1.2228,-0.58031 v 2.96375 h 1.7824 v 1.07773 h -1.7824 v 4.18656 q 0,0.4767 0.14509,0.74612 0.1658,0.24871 0.62176,0.24871 0.47668,0 1.057,-0.37306 l -0.12429,1.18136 q -0.62177,0.33161 -1.38861,0.33161 z"
       id="path45"
       inkscape:connector-curvature="0"
       style="fill:#ffffff;fill-rule:nonzero;stroke-width:1.32643652" />
    <path
       d="m 579.19121,91.193664 14.12083,14.120806 -14.12083,14.12081 v -7.06041 H 128.74588 V 98.254061 h 450.44533 z"
       id="path47"
       inkscape:connector-curvature="0"
       style="fill:#eeeeee;fill-rule:evenodd;stroke-width:1.32643652" />
    <path
       d="m 579.19121,91.193664 14.12083,14.120806 -14.12083,14.12081 v -7.06041 H 128.74588 V 98.254061 h 450.44533 z"
       id="path49"
       inkscape:connector-curvature="0"
       style="fill-rule:evenodd;stroke:#595959;stroke-width:1.32643652;stroke-linecap:butt;stroke-linejoin:round" />
    <path
       d="M 222.32409,68.874016 H 454.52357 V 97.115623 H 222.32409 Z"
       id="path51"
       inkscape:connector-curvature="0"
       style="fill:#6aa84f;fill-rule:evenodd;stroke-width:1.32643652" />
    <path
       d="m 260.79595,89.568978 q -1.6995,0 -2.94303,-0.849748 -1.22281,-0.870475 -1.74095,-2.34199 l 1.96894,-0.725395 q 0.39377,0.870474 1.11918,1.388614 0.72538,0.518139 1.65805,0.518139 0.97408,0 1.53369,-0.435237 0.58031,-0.455963 0.58031,-1.284986 0,-0.331609 -0.16581,-0.621766 -0.14508,-0.290159 -0.35234,-0.476688 -0.20725,-0.207257 -0.62177,-0.393787 -0.39377,-0.207255 -0.68393,-0.310883 -0.26944,-0.124354 -0.82902,-0.290158 -0.70467,-0.248707 -1.07773,-0.393787 -0.37306,-0.145078 -0.9741,-0.455962 -0.60105,-0.331609 -0.91193,-0.663218 -0.29017,-0.352335 -0.53887,-0.911925 -0.22797,-0.55959 -0.22797,-1.222809 0,-1.409338 1.07772,-2.362714 1.09846,-0.953377 2.98449,-0.953377 1.55441,0 2.56996,0.725395 1.03629,0.725395 1.38861,1.927478 l -1.90675,0.621767 q -0.58031,-1.264259 -2.19691,-1.264259 -0.82902,0 -1.3057,0.352334 -0.45597,0.331609 -0.45597,0.974102 0,0.414511 0.35233,0.766846 0.37307,0.331609 0.78758,0.497413 0.41451,0.165805 1.22281,0.435238 0.53887,0.18653 0.8083,0.290158 0.26943,0.103634 0.76685,0.331609 0.49741,0.227981 0.76683,0.414511 0.29016,0.18653 0.6425,0.497413 0.37306,0.310885 0.55959,0.663219 0.20726,0.352334 0.3316,0.829023 0.1451,0.455963 0.1451,0.994827 0,1.740948 -1.22282,2.735776 -1.2228,0.994827 -3.10884,0.994827 z m 10.22451,0 q -1.84457,0 -2.94304,-1.243533 -1.07773,-1.264261 -1.07773,-3.461172 0,-2.217635 1.07773,-3.481896 1.09847,-1.264259 2.94304,-1.264259 2.79795,0 3.58552,2.487068 l -1.9482,0.663219 q -0.45596,-1.181358 -1.55442,-1.181358 -0.95338,0 -1.49224,0.74612 -0.51813,0.746121 -0.51813,2.010381 0,1.26426 0.51813,2.01038 0.51814,0.725395 1.40934,0.725395 1.26426,0 1.63732,-1.30571 l 1.98966,0.601041 q -0.78757,2.694324 -3.62698,2.694324 z m 10.97723,-0.207256 v -0.725394 q -0.89118,0.93265 -2.40416,0.93265 -1.45079,0 -2.36272,-0.787571 -0.91192,-0.787572 -0.91192,-2.217637 0,-1.471515 1.03628,-2.217636 1.03628,-0.766846 2.5078,-0.766846 1.28498,0 2.13472,0.476688 v -0.476688 q 0,-0.870473 -0.43523,-1.243535 -0.43524,-0.393785 -1.32643,-0.393785 -1.47152,0 -2.69432,0.849749 l -0.62177,-1.678772 q 1.45079,-0.994827 3.52334,-0.994827 0.70467,0 1.24354,0.124354 0.53887,0.103634 1.11918,0.435236 0.58031,0.331609 0.8912,1.057005 0.31088,0.725394 0.31088,1.803124 v 5.823885 z m -2.01036,-1.616594 q 1.18135,0 2.01036,-0.849749 v -1.181357 q -0.76683,-0.373061 -1.80311,-0.373061 -0.82902,0 -1.34717,0.310884 -0.49742,0.290158 -0.49742,0.911925 0,0.559591 0.41452,0.870474 0.43525,0.310884 1.22282,0.310884 z m 6.58829,1.616594 V 77.568873 l 2.07257,-0.974102 v 12.766951 z m 8.54476,0.207256 q -1.92749,0 -3.04667,-1.264259 -1.11918,-1.26426 -1.11918,-3.461171 0,-2.19691 1.11918,-3.461171 1.13991,-1.264259 3.04667,-1.264259 1.74095,0 2.83939,1.07773 1.09846,1.07773 1.09846,3.171011 0,0.725396 -0.0622,1.264261 h -5.98968 q 0.0414,0.953376 0.64249,1.533692 0.62176,0.580316 1.47152,0.580316 1.20208,0 1.90675,-0.93265 l 1.30571,1.347162 q -1.18136,1.409338 -3.21246,1.409338 z m -2.11401,-5.658081 h 4.00002 q -0.0622,-0.974102 -0.60103,-1.471515 -0.51814,-0.497414 -1.28498,-0.497414 -0.89121,0 -1.47152,0.497414 -0.55959,0.476688 -0.64249,1.471515 z m 18.00108,5.450825 v -0.870474 q -0.84974,1.07773 -2.36272,1.07773 -1.40934,0 -2.32126,-0.891199 -0.89119,-0.891199 -0.89119,-2.818678 v -5.533728 h 2.07255 v 5.160668 q 0,2.114008 1.67877,2.114008 1.82385,0 1.82385,-2.072557 v -5.202119 h 2.07256 v 9.036349 z m 8.85046,0.207256 q -1.3057,0 -2.05182,-0.93265 v 3.31608 l -2.07256,0.953376 V 80.325373 h 2.07256 v 0.683944 q 0.74612,-0.891199 2.07256,-0.891199 1.69949,0 2.69432,1.243534 1.01554,1.243534 1.01554,3.481896 0,2.196911 -1.03627,3.461171 -1.01555,1.264259 -2.69433,1.264259 z m -0.31087,-1.968929 q 0.93264,0 1.45079,-0.70467 0.51813,-0.725394 0.51813,-2.051831 0,-1.243534 -0.51813,-1.989655 -0.51815,-0.766846 -1.45079,-0.766846 -1.13992,0 -1.74095,0.870474 v 3.751329 q 0.62177,0.891199 1.74095,0.891199 z m 13.25067,-5.471551 v 7.233224 h -2.07255 v -7.233224 h -1.30571 v -1.803125 h 1.30571 v -1.409339 q 0,-2.134733 2.13473,-2.134733 1.07774,0 1.90676,0.414512 v 1.699496 q -0.72541,-0.290158 -1.28499,-0.290158 -0.68395,0 -0.68395,0.70467 v 1.015552 h 1.96894 v 1.803125 z m 3.47866,7.233224 v -9.036349 h 2.07256 v 0.932652 q 0.53887,-1.139907 1.84458,-1.139907 0.95338,0 1.67876,0.621767 l -0.29015,1.886027 q -0.68394,-0.476688 -1.5337,-0.476688 -0.70467,0 -1.20208,0.497414 -0.49741,0.497413 -0.49741,1.658046 v 5.057038 z m 10.90211,0.207256 q -1.90676,0 -3.02594,-1.243533 -1.09846,-1.264261 -1.09846,-3.461172 0,-2.217635 1.09846,-3.481896 1.11918,-1.264259 3.02594,-1.264259 1.90675,0 3.02593,1.264259 1.1399,1.264261 1.1399,3.481896 0,2.196911 -1.11918,3.461172 -1.11919,1.243533 -3.04665,1.243533 z m 0,-1.968929 q 0.97408,0 1.53368,-0.725395 0.55959,-0.725395 0.55959,-2.010381 0,-1.30571 -0.55959,-2.031106 -0.5596,-0.74612 -1.53368,-0.74612 -0.93267,0 -1.51298,0.74612 -0.55958,0.746121 -0.55958,2.031106 0,1.264261 0.55958,2.010381 0.5596,0.725395 1.51298,0.725395 z m 16.9816,1.761673 V 84.18033 q 0,-2.093283 -1.53369,-2.093283 -0.8083,0 -1.26427,0.538865 -0.43523,0.538865 -0.43523,1.595869 v 5.139941 h -2.07255 V 84.18033 q 0,-2.093283 -1.53369,-2.093283 -0.80831,0 -1.26427,0.538865 -0.43524,0.538865 -0.43524,1.595869 v 5.139941 h -2.07255 v -9.036349 h 2.07255 v 0.829024 q 0.76684,-1.036279 2.19692,-1.036279 1.67877,0 2.38344,1.264259 0.84975,-1.264259 2.71505,-1.264259 1.51296,0 2.40417,0.849748 0.91192,0.829024 0.91192,2.632148 v 5.761708 z m 13.41498,0.207256 q -1.01554,0 -1.80311,-0.37306 -0.78757,-0.37306 -1.28498,-0.974102 -0.49743,-0.621767 -0.82903,-1.471515 -0.31089,-0.870475 -0.45596,-1.740949 -0.12429,-0.870473 -0.12429,-1.844575 0,-0.932651 0.12429,-1.7824 0.12429,-0.870473 0.45596,-1.720222 0.3316,-0.870473 0.80829,-1.492241 0.49741,-0.621767 1.28498,-0.994827 0.80831,-0.393786 1.82385,-0.393786 1.24354,0 2.15546,0.55959 0.91193,0.538865 1.38862,1.512967 0.49742,0.953377 0.72539,2.031106 0.22799,1.057004 0.22799,2.279813 0,1.202082 -0.22799,2.259087 -0.20726,1.057004 -0.70467,2.031106 -0.47667,0.974102 -1.40934,1.554418 -0.91192,0.55959 -2.15546,0.55959 z m 0,-2.01038 q 0.66322,0 1.13992,-0.37306 0.47669,-0.393786 0.72539,-1.036279 0.24871,-0.663218 0.35234,-1.388613 0.12429,-0.746121 0.12429,-1.595869 0,-0.870474 -0.12429,-1.595869 -0.1036,-0.74612 -0.35234,-1.388613 -0.2487,-0.642493 -0.74613,-1.015553 -0.47667,-0.37306 -1.11918,-0.37306 -0.66321,0 -1.16062,0.37306 -0.47669,0.37306 -0.72539,1.036278 -0.228,0.663218 -0.35235,1.388613 -0.10359,0.725396 -0.10359,1.59587 0,0.849748 0.10359,1.595869 0.12429,0.74612 0.37307,1.388613 0.2487,0.642493 0.72539,1.015553 0.47669,0.37306 1.1399,0.37306 z m 14.0902,2.01038 q -2.11401,0 -2.11401,-2.321263 v -5.119217 h -1.32643 v -1.803125 h 1.32643 v -2.735775 l 2.07255,-0.994827 v 3.730602 h 2.09329 v 1.803125 h -2.09329 v 4.72543 q 0,0.870475 0.76686,0.870475 0.68394,0 1.40933,-0.414512 l -0.2487,1.865302 q -0.76685,0.393785 -1.88603,0.393785 z m 7.8603,0 q -1.90676,0 -3.02593,-1.243533 -1.09846,-1.264261 -1.09846,-3.461172 0,-2.217635 1.09846,-3.481896 1.11917,-1.264259 3.02593,-1.264259 1.90675,0 3.02594,1.264259 1.13989,1.264261 1.13989,3.481896 0,2.196911 -1.11918,3.461172 -1.11918,1.243533 -3.04665,1.243533 z m 0,-1.968929 q 0.97409,0 1.5337,-0.725395 0.55957,-0.725395 0.55957,-2.010381 0,-1.30571 -0.55957,-2.031106 -0.55961,-0.74612 -1.5337,-0.74612 -0.93266,0 -1.51297,0.74612 -0.55959,0.746121 -0.55959,2.031106 0,1.264261 0.55959,2.010381 0.55959,0.725395 1.51297,0.725395 z m 20.50463,1.761673 h -1.92748 l -5.13994,-7.81354 q -0.2487,-0.37306 -0.51814,-0.911925 0.0622,0.414511 0.0622,0.911925 v 7.81354 h -2.09329 V 76.988556 h 2.0311 l 5.0156,7.689188 q 0.1658,0.269432 0.51814,0.93265 -0.0622,-0.476688 -0.0622,-0.93265 v -7.689188 h 2.11401 z"
       id="path53"
       inkscape:connector-curvature="0"
       style="fill:#ffffff;fill-rule:nonzero;stroke-width:1.32643652" />
    <path
       d="M 372.74406,398.14011 H 490.3478 v 35.21846 H 372.74406 Z"
       id="path55"
       inkscape:connector-curvature="0"
       style="fill:#3c78d8;fill-rule:evenodd;stroke-width:1.32643652" />
    <path
       d="m 394.2139,420.71023 v -7.89645 h -1.65804 v -0.82902 q 1.59587,0 1.98965,-1.16064 h 0.89121 v 9.88611 z m 7.57289,0.1658 q -0.93266,0 -1.65804,-0.43524 -0.70467,-0.45596 -1.07774,-1.20209 -0.37306,-0.76683 -0.55959,-1.61659 -0.16581,-0.87047 -0.16581,-1.8653 0,-0.89119 0.14509,-1.72022 0.1658,-0.82902 0.53887,-1.61659 0.37305,-0.8083 1.07772,-1.28498 0.72539,-0.49742 1.6995,-0.49742 0.95338,0 1.65805,0.45596 0.70466,0.43523 1.07773,1.20208 0.37306,0.76684 0.53886,1.63732 0.18653,0.84976 0.18653,1.82385 0,0.91193 -0.16581,1.74095 -0.14508,0.82902 -0.51813,1.63733 -0.37306,0.78756 -1.09847,1.26425 -0.70467,0.47669 -1.67876,0.47669 z m 0,-1.16063 q 0.64248,0 1.09845,-0.35234 0.45597,-0.35233 0.66321,-0.9741 0.228,-0.62176 0.3109,-1.24353 0.10359,-0.6425 0.10359,-1.38862 0,-0.78758 -0.10359,-1.45079 -0.1036,-0.66322 -0.33161,-1.24354 -0.22799,-0.60103 -0.68396,-0.93264 -0.43523,-0.33161 -1.05699,-0.33161 -0.6425,0 -1.09846,0.35233 -0.45597,0.35234 -0.68394,0.97411 -0.22798,0.62177 -0.31089,1.26425 -0.0829,0.6425 -0.0829,1.36789 0,0.78757 0.0829,1.45079 0.10359,0.66322 0.33161,1.26427 0.24871,0.58031 0.68395,0.91193 0.45597,0.3316 1.07773,0.3316 z m 9.03227,1.16063 q -0.93267,0 -1.65805,-0.43524 -0.70467,-0.45596 -1.07773,-1.20209 -0.37306,-0.76683 -0.5596,-1.61659 -0.1658,-0.87047 -0.1658,-1.8653 0,-0.89119 0.14508,-1.72022 0.16581,-0.82902 0.53887,-1.61659 0.37305,-0.8083 1.07772,-1.28498 0.7254,-0.49742 1.69951,-0.49742 0.95337,0 1.65804,0.45596 0.70467,0.43523 1.07773,1.20208 0.37306,0.76684 0.53886,1.63732 0.18653,0.84976 0.18653,1.82385 0,0.91193 -0.1658,1.74095 -0.14508,0.82902 -0.51814,1.63733 -0.37306,0.78756 -1.09847,1.26425 -0.70466,0.47669 -1.67875,0.47669 z m 0,-1.16063 q 0.64248,0 1.09844,-0.35234 0.45597,-0.35233 0.66322,-0.9741 0.22799,-0.62176 0.31089,-1.24353 0.1036,-0.6425 0.1036,-1.38862 0,-0.78758 -0.1036,-1.45079 -0.1036,-0.66322 -0.3316,-1.24354 -0.228,-0.60103 -0.68395,-0.93264 -0.43523,-0.33161 -1.057,-0.33161 -0.64251,0 -1.09847,0.35233 -0.45596,0.35234 -0.68394,0.97411 -0.22798,0.62177 -0.31088,1.26425 -0.0829,0.6425 -0.0829,1.36789 0,0.78757 0.0829,1.45079 0.10359,0.66322 0.3316,1.26427 0.24871,0.58031 0.68395,0.91193 0.45597,0.3316 1.07774,0.3316 z m 9.22441,0.99483 v -9.88611 h 3.8964 q 1.63733,0 2.38345,0.80831 0.74612,0.78757 0.74612,1.98965 0,0.9741 -0.58032,1.76167 -0.55959,0.76685 -1.72023,0.99483 l 2.11402,4.33165 h -1.38861 l -2.03111,-4.24875 h -2.19691 v 4.24875 z m 1.22281,-5.38865 h 2.69433 q 0.97409,0 1.40933,-0.47669 0.45597,-0.47669 0.45597,-1.18135 0,-0.68396 -0.43525,-1.18137 -0.43523,-0.51813 -1.43005,-0.51813 h -2.69433 z m 10.74689,5.55445 q -1.47152,0 -2.34199,-1.03628 -0.87048,-1.057 -0.87048,-2.7565 0,-1.76167 0.87048,-2.7565 0.89121,-1.01555 2.34199,-1.01555 1.30571,0 2.13474,0.87047 0.84975,0.87048 0.84975,2.56997 0,0.39379 -0.0414,0.82902 h -4.89123 q 0.0622,0.97411 0.60103,1.57514 0.5596,0.60105 1.36789,0.60105 0.91193,0 1.55442,-0.64249 l 0.74613,0.82901 q -0.93266,0.93266 -2.32127,0.93266 z m -1.96893,-4.35236 h 3.70988 q -0.0207,-1.11919 -0.53886,-1.6166 -0.51815,-0.49741 -1.20209,-0.49741 -0.82901,0 -1.36788,0.53886 -0.53887,0.51814 -0.60105,1.57515 z m 9.3663,4.35236 q -1.36789,0 -2.19691,-0.99482 -0.80829,-1.01556 -0.80829,-2.77723 0,-1.74095 0.78757,-2.7565 0.8083,-1.03628 2.17618,-1.03628 0.99482,0 1.8653,0.78757 V 413.477 h 1.22281 v 9.51304 l -1.22281,0.53887 v -3.50263 q -0.74612,0.84975 -1.82385,0.84975 z m 0.10359,-1.13991 q 0.95338,0 1.72022,-0.99483 v -3.31609 q -0.58031,-0.9741 -1.72022,-0.9741 -0.84975,0 -1.36788,0.74613 -0.49742,0.74611 -0.49742,1.90675 0,1.26425 0.47669,1.9482 0.49741,0.68394 1.38861,0.68394 z m 9.65751,0.97411 v -0.68395 q -0.66322,0.84975 -1.82385,0.84975 -1.30571,0 -1.96894,-0.74612 -0.66321,-0.76685 -0.66321,-2.46635 V 413.477 h 1.24353 v 4.3731 q 0,0.97409 0.41451,1.43006 0.41451,0.45596 1.13992,0.45596 1.65804,0 1.65804,-1.8653 V 413.477 h 1.22281 v 7.23323 z m 6.36209,0.1658 q -1.47151,0 -2.34198,-1.03628 -0.87047,-1.057 -0.87047,-2.7565 0,-1.76167 0.87047,-2.7565 0.8912,-1.01555 2.34198,-1.01555 1.30572,0 2.13479,0.87047 0.84974,0.87048 0.84974,2.56997 0,0.39379 -0.0414,0.82902 h -4.89128 q 0.0622,0.97411 0.60105,1.57514 0.55957,0.60105 1.36788,0.60105 0.91193,0 1.55441,-0.64249 l 0.74617,0.82901 q -0.93269,0.93266 -2.32131,0.93266 z m -1.96892,-4.35236 h 3.70987 q -0.0207,-1.11919 -0.53887,-1.6166 -0.51813,-0.49741 -1.20208,-0.49741 -0.82902,0 -1.36788,0.53886 -0.53887,0.51814 -0.60104,1.57515 z m 8.93109,4.35236 q -0.78756,0 -1.49223,-0.33161 -0.68394,-0.33161 -1.1399,-0.87047 l 0.89119,-0.76685 q 0.8083,0.87047 1.76168,0.87047 0.60103,0 0.9741,-0.22797 0.37306,-0.24871 0.37306,-0.68395 0,-0.35233 -0.26943,-0.62177 -0.26944,-0.26943 -0.5596,-0.39378 -0.26943,-0.14509 -0.82902,-0.35234 -1.09844,-0.41451 -1.67877,-0.91192 -0.55959,-0.51814 -0.55959,-1.36789 0,-0.87047 0.68395,-1.38861 0.68394,-0.51814 1.74095,-0.51814 1.51295,0 2.44562,1.09846 l -0.84976,0.70467 q -0.66322,-0.68395 -1.59586,-0.68395 -0.5596,0 -0.89121,0.20725 -0.31087,0.20726 -0.31087,0.58032 0,0.22798 0.10359,0.41451 0.10359,0.1658 0.37306,0.33161 0.29016,0.14508 0.43524,0.22798 0.16581,0.0622 0.62177,0.22798 1.1399,0.41451 1.74095,0.95338 0.60103,0.51814 0.60103,1.45078 0,0.97412 -0.70467,1.51298 -0.68393,0.53886 -1.8653,0.53886 z m 6.44279,0 q -1.5337,0 -1.5337,-1.72023 v -4.60107 h -1.18134 V 413.477 h 1.18134 v -2.38344 l 1.22282,-0.58031 v 2.96375 h 1.7824 v 1.07773 h -1.7824 v 4.18656 q 0,0.4767 0.14508,0.74612 0.1658,0.24871 0.62176,0.24871 0.4767,0 1.05701,-0.37306 l -0.12428,1.18136 q -0.62177,0.33161 -1.38862,0.33161 z"
       id="path57"
       inkscape:connector-curvature="0"
       style="fill:#ffffff;fill-rule:nonzero;stroke-width:1.32643652" />
    <path
       d="m 540.077,352.09433 14.12083,-14.12083 14.12079,14.12083 h -7.06041 v 40.06463 h -14.12079 v -40.06463 z"
       id="path59"
       inkscape:connector-curvature="0"
       style="fill:#eeeeee;fill-rule:evenodd;stroke-width:1.32643652" />
    <path
       d="m 540.077,352.09433 14.12083,-14.12083 14.12079,14.12083 h -7.06041 v 40.06463 h -14.12079 v -40.06463 z"
       id="path61"
       inkscape:connector-curvature="0"
       style="fill-rule:evenodd;stroke:#595959;stroke-width:1.32643652;stroke-linecap:butt;stroke-linejoin:round" />
    <path
       d="m 495.39593,398.14011 h 117.60375 v 35.21846 H 495.39593 Z"
       id="path63"
       inkscape:connector-curvature="0"
       style="fill:#3c78d8;fill-rule:evenodd;stroke-width:1.32643652" />
    <path
       d="m 510.63915,420.71023 q 0,-0.93266 0.26942,-1.6995 0.26944,-0.76685 0.76685,-1.34717 0.51814,-0.58031 1.01556,-0.97409 0.51814,-0.3938 1.22281,-0.80831 0.64248,-0.39377 1.01555,-0.66321 0.37306,-0.29016 0.68395,-0.74613 0.31087,-0.47667 0.31087,-0.99482 0,-0.72539 -0.53886,-1.20208 -0.51813,-0.47669 -1.38861,-0.47669 -1.63733,0 -2.11401,1.45079 l -1.09846,-0.49741 q 0.31089,-0.93266 1.18136,-1.51298 0.87048,-0.60103 2.07256,-0.60103 1.47151,0 2.32126,0.78757 0.84975,0.78757 0.84975,2.07256 0,0.51813 -0.16581,0.95337 -0.14507,0.43523 -0.37305,0.74613 -0.20726,0.31087 -0.62177,0.66321 -0.41451,0.33161 -0.74612,0.53887 -0.31088,0.20726 -0.82903,0.51813 -1.057,0.62177 -1.65805,1.22282 -0.60103,0.58031 -0.74611,1.36788 h 5.22284 v 1.20209 z m 12.17396,0.1658 q -0.93265,0 -1.65804,-0.43524 -0.70467,-0.45596 -1.07773,-1.20209 -0.37306,-0.76683 -0.5596,-1.61659 -0.1658,-0.87047 -0.1658,-1.8653 0,-0.89119 0.14508,-1.72022 0.16581,-0.82902 0.53887,-1.61659 0.37306,-0.8083 1.07773,-1.28498 0.72538,-0.49742 1.69949,-0.49742 0.95338,0 1.65805,0.45596 0.70467,0.43523 1.07773,1.20208 0.37306,0.76684 0.53887,1.63732 0.18652,0.84976 0.18652,1.82385 0,0.91193 -0.16581,1.74095 -0.14507,0.82902 -0.51813,1.63733 -0.37305,0.78756 -1.09846,1.26425 -0.70467,0.47669 -1.67877,0.47669 z m 0,-1.16063 q 0.64249,0 1.09846,-0.35234 0.45595,-0.35233 0.66321,-0.9741 0.22799,-0.62176 0.31089,-1.24353 0.1036,-0.6425 0.1036,-1.38862 0,-0.78758 -0.1036,-1.45079 -0.10359,-0.66322 -0.33161,-1.24354 -0.22798,-0.60103 -0.68395,-0.93264 -0.43523,-0.33161 -1.057,-0.33161 -0.64249,0 -1.09845,0.35233 -0.45597,0.35234 -0.68394,0.97411 -0.22799,0.62177 -0.3109,1.26425 -0.0829,0.6425 -0.0829,1.36789 0,0.78757 0.0829,1.45079 0.1036,0.66322 0.33162,1.26427 0.24871,0.58031 0.68395,0.91193 0.45596,0.3316 1.07772,0.3316 z m 9.03227,1.16063 q -0.93266,0 -1.65804,-0.43524 -0.70467,-0.45596 -1.07773,-1.20209 -0.37307,-0.76683 -0.55961,-1.61659 -0.1658,-0.87047 -0.1658,-1.8653 0,-0.89119 0.14509,-1.72022 0.16581,-0.82902 0.53886,-1.61659 0.37306,-0.8083 1.07773,-1.28498 0.7254,-0.49742 1.6995,-0.49742 0.95337,0 1.65804,0.45596 0.70467,0.43523 1.07774,1.20208 0.37306,0.76684 0.53886,1.63732 0.18653,0.84976 0.18653,1.82385 0,0.91193 -0.16581,1.74095 -0.14507,0.82902 -0.51814,1.63733 -0.37305,0.78756 -1.09846,1.26425 -0.70467,0.47669 -1.67876,0.47669 z m 0,-1.16063 q 0.64249,0 1.09845,-0.35234 0.45596,-0.35233 0.66322,-0.9741 0.22798,-0.62176 0.31089,-1.24353 0.10359,-0.6425 0.10359,-1.38862 0,-0.78758 -0.10359,-1.45079 -0.1036,-0.66322 -0.33162,-1.24354 -0.22798,-0.60103 -0.68394,-0.93264 -0.43524,-0.33161 -1.057,-0.33161 -0.6425,0 -1.09846,0.35233 -0.45597,0.35234 -0.68394,0.97411 -0.22798,0.62177 -0.31088,1.26425 -0.0829,0.6425 -0.0829,1.36789 0,0.78757 0.0829,1.45079 0.10358,0.66322 0.3316,1.26427 0.24871,0.58031 0.68395,0.91193 0.45597,0.3316 1.07773,0.3316 z m 9.22441,0.99483 v -9.88611 h 3.8964 q 1.63734,0 2.38346,0.80831 0.74611,0.78757 0.74611,1.98965 0,0.9741 -0.58031,1.76167 -0.55959,0.76685 -1.72023,0.99483 l 2.11401,4.33165 h -1.3886 l -2.03111,-4.24875 h -2.19692 v 4.24875 z m 1.22281,-5.38865 h 2.69433 q 0.9741,0 1.40934,-0.47669 0.45597,-0.47669 0.45597,-1.18135 0,-0.68396 -0.43525,-1.18137 -0.43523,-0.51813 -1.43006,-0.51813 h -2.69433 z m 10.74694,5.55445 q -1.47152,0 -2.34199,-1.03628 -0.87048,-1.057 -0.87048,-2.7565 0,-1.76167 0.87048,-2.7565 0.89121,-1.01555 2.34199,-1.01555 1.30571,0 2.13473,0.87047 0.84976,0.87048 0.84976,2.56997 0,0.39379 -0.0414,0.82902 h -4.89123 q 0.0622,0.97411 0.60103,1.57514 0.55959,0.60105 1.36789,0.60105 0.91192,0 1.55442,-0.64249 l 0.74612,0.82901 q -0.93266,0.93266 -2.32126,0.93266 z m -1.96893,-4.35236 h 3.70988 q -0.0207,-1.11919 -0.53887,-1.6166 -0.51814,-0.49741 -1.20208,-0.49741 -0.82903,0 -1.36788,0.53886 -0.53887,0.51814 -0.60105,1.57515 z m 9.36629,4.35236 q -1.36788,0 -2.19691,-0.99482 -0.80828,-1.01556 -0.80828,-2.77723 0,-1.74095 0.78757,-2.7565 0.80828,-1.03628 2.17618,-1.03628 0.99482,0 1.8653,0.78757 V 413.477 h 1.22281 v 9.51304 l -1.22281,0.53887 v -3.50263 q -0.74612,0.84975 -1.82386,0.84975 z m 0.1036,-1.13991 q 0.95338,0 1.72022,-0.99483 v -3.31609 q -0.58032,-0.9741 -1.72022,-0.9741 -0.84975,0 -1.36788,0.74613 -0.49742,0.74611 -0.49742,1.90675 0,1.26425 0.47668,1.9482 0.49741,0.68394 1.38862,0.68394 z m 9.65746,0.97411 v -0.68395 q -0.66321,0.84975 -1.82385,0.84975 -1.30571,0 -1.96893,-0.74612 -0.66321,-0.76685 -0.66321,-2.46635 V 413.477 h 1.24352 v 4.3731 q 0,0.97409 0.41452,1.43006 0.41451,0.45596 1.13991,0.45596 1.65804,0 1.65804,-1.8653 V 413.477 h 1.22281 v 7.23323 z m 6.36215,0.1658 q -1.47152,0 -2.34199,-1.03628 -0.87048,-1.057 -0.87048,-2.7565 0,-1.76167 0.87048,-2.7565 0.89121,-1.01555 2.34199,-1.01555 1.30571,0 2.13473,0.87047 0.84976,0.87048 0.84976,2.56997 0,0.39379 -0.0414,0.82902 h -4.89123 q 0.0622,0.97411 0.60103,1.57514 0.5596,0.60105 1.36789,0.60105 0.91192,0 1.55442,-0.64249 l 0.74612,0.82901 q -0.93266,0.93266 -2.32126,0.93266 z m -1.96893,-4.35236 h 3.70988 q -0.0207,-1.11919 -0.53886,-1.6166 -0.51815,-0.49741 -1.20209,-0.49741 -0.82901,0 -1.36788,0.53886 -0.53887,0.51814 -0.60105,1.57515 z m 8.93105,4.35236 q -0.78757,0 -1.49224,-0.33161 -0.68394,-0.33161 -1.13989,-0.87047 l 0.89118,-0.76685 q 0.80831,0.87047 1.76169,0.87047 0.60103,0 0.97409,-0.22797 0.37306,-0.24871 0.37306,-0.68395 0,-0.35233 -0.26942,-0.62177 -0.26944,-0.26943 -0.5596,-0.39378 -0.26943,-0.14509 -0.82903,-0.35234 -1.09844,-0.41451 -1.67876,-0.91192 -0.5596,-0.51814 -0.5596,-1.36789 0,-0.87047 0.68395,-1.38861 0.68395,-0.51814 1.74095,-0.51814 1.51296,0 2.44562,1.09846 l -0.84975,0.70467 q -0.66322,-0.68395 -1.59587,-0.68395 -0.55959,0 -0.8912,0.20725 -0.31088,0.20726 -0.31088,0.58032 0,0.22798 0.1036,0.41451 0.10359,0.1658 0.37306,0.33161 0.29015,0.14508 0.43524,0.22798 0.16581,0.0622 0.62176,0.22798 1.1399,0.41451 1.74095,0.95338 0.60103,0.51814 0.60103,1.45078 0,0.97412 -0.70466,1.51298 -0.68394,0.53886 -1.8653,0.53886 z m 6.44278,0 q -1.53369,0 -1.53369,-1.72023 v -4.60107 h -1.18134 V 413.477 h 1.18134 v -2.38344 l 1.22282,-0.58031 v 2.96375 h 1.78239 v 1.07773 h -1.78239 v 4.18656 q 0,0.4767 0.14507,0.74612 0.1658,0.24871 0.62177,0.24871 0.4767,0 1.05701,-0.37306 l -0.12428,1.18136 q -0.62177,0.33161 -1.38863,0.33161 z m 5.47301,0 q -0.78757,0 -1.49224,-0.33161 -0.68394,-0.33161 -1.1399,-0.87047 l 0.8912,-0.76685 q 0.8083,0.87047 1.76168,0.87047 0.60103,0 0.9741,-0.22797 0.37305,-0.24871 0.37305,-0.68395 0,-0.35233 -0.26943,-0.62177 -0.26943,-0.26943 -0.55959,-0.39378 -0.26943,-0.14509 -0.82903,-0.35234 -1.09844,-0.41451 -1.67876,-0.91192 -0.5596,-0.51814 -0.5596,-1.36789 0,-0.87047 0.68395,-1.38861 0.68395,-0.51814 1.74095,-0.51814 1.51296,0 2.44562,1.09846 l -0.84975,0.70467 q -0.66322,-0.68395 -1.59587,-0.68395 -0.55959,0 -0.8912,0.20725 -0.31088,0.20726 -0.31088,0.58032 0,0.22798 0.1036,0.41451 0.10359,0.1658 0.37306,0.33161 0.29015,0.14508 0.43524,0.22798 0.16581,0.0622 0.62176,0.22798 1.1399,0.41451 1.74095,0.95338 0.60103,0.51814 0.60103,1.45078 0,0.97412 -0.70466,1.51298 -0.68394,0.53886 -1.8653,0.53886 z"
       id="path65"
       inkscape:connector-curvature="0"
       style="fill:#ffffff;fill-rule:nonzero;stroke-width:1.32643652" />
  </g>
</svg>
